<svg width="12" height="20" viewBox="0 0 12 20" fill="none" xmlns="http://www.w3.org/2000/svg">
<path d="M6.15001 17.7684C6.12001 17.7564 6.08401 17.7704 6.07201 17.8024C6.06001 17.8344 6.07401 17.8684 6.10601 17.8804C6.21801 17.9244 6.29001 18.0304 6.29001 18.1504C6.29001 18.3104 6.16001 18.4384 6.00201 18.4384C5.84201 18.4384 5.71401 18.3084 5.71401 18.1484C5.71401 18.0324 5.78401 17.9284 5.89001 17.8824C5.92001 17.8684 5.93601 17.8344 5.92201 17.8024C5.90801 17.7724 5.87401 17.7564 5.84201 17.7704C5.69001 17.8344 5.59201 17.9824 5.59201 18.1484C5.59201 18.3744 5.77601 18.5584 6.00201 18.5584C6.22801 18.5584 6.41201 18.3744 6.41201 18.1484C6.41001 17.9804 6.30801 17.8304 6.15001 17.7684Z" fill="#FF8000"/>
<path d="M6 18.2224C6.034 18.2224 6.06 18.1964 6.06 18.1624V18.0024C6.06 17.9684 6.032 17.9424 6 17.9424C5.966 17.9424 5.94 17.9684 5.94 18.0024V18.1624C5.94 18.1964 5.966 18.2224 6 18.2224Z" fill="#FF8000"/>
<path d="M10.444 0.200195H1.55601C0.826009 0.200195 0.234009 0.792195 0.234009 1.5222V18.4782C0.234009 19.2082 0.826009 19.8002 1.55601 19.8002H10.444C11.174 19.8002 11.766 19.2082 11.766 18.4782V1.5222C11.766 0.792195 11.174 0.200195 10.444 0.200195ZM9.41201 1.3562C9.54001 1.3562 9.64401 1.4602 9.64401 1.5882C9.64401 1.7162 9.54001 1.8202 9.41201 1.8202C9.28401 1.8202 9.17801 1.7162 9.17801 1.5882C9.17801 1.4602 9.28401 1.3562 9.41201 1.3562ZM4.38201 1.4242H7.61601C7.70601 1.4242 7.78001 1.4982 7.78001 1.5882C7.78001 1.6782 7.70601 1.7522 7.61601 1.7522H4.38201C4.29201 1.7522 4.21801 1.6782 4.21801 1.5882C4.21801 1.4982 4.29201 1.4242 4.38201 1.4242ZM2.25801 1.4242H3.32601C3.41601 1.4242 3.49001 1.4982 3.49001 1.5882C3.49001 1.6782 3.41601 1.7522 3.32601 1.7522H2.25801C2.16801 1.7522 2.09401 1.6782 2.09401 1.5882C2.09401 1.4982 2.16801 1.4242 2.25801 1.4242ZM5.97801 18.9922C5.51801 18.9922 5.14601 18.6202 5.14601 18.1602C5.14601 17.7002 5.51801 17.3282 5.97801 17.3282C6.43601 17.3282 6.81001 17.7002 6.81001 18.1602C6.81001 18.6202 6.43601 18.9922 5.97801 18.9922ZM9.98201 15.7982C9.98201 15.9982 9.82001 16.1622 9.61801 16.1622H2.38201C2.18001 16.1622 2.01801 16.0002 2.01801 15.7982V2.7462C2.01801 2.5462 2.18001 2.38219 2.38201 2.38219H9.61801C9.82001 2.38219 9.98201 2.5442 9.98201 2.7462V15.7982Z" fill="#FF8000"/>
</svg>
