<svg width="37" height="42" viewBox="0 0 37 42" fill="none" xmlns="http://www.w3.org/2000/svg">
<path d="M13.9966 0.531317C13.9461 0.582975 13.8125 1.2344 13.687 1.96352C13.5698 2.69222 13.4361 3.36128 13.4025 3.45536C13.3607 3.56666 13.1261 3.66956 12.5571 3.82412C12.1216 3.94424 11.703 4.04714 11.628 4.05554C11.5526 4.05554 11.1175 3.6011 10.6153 2.9921C10.1381 2.40032 9.67762 1.8686 9.6026 1.80896C9.48534 1.70606 9.29305 1.79173 8.16267 2.45197C7.45132 2.86357 6.84863 3.26678 6.8232 3.34364C6.79819 3.42092 7.0073 4.12399 7.28364 4.90436L7.78589 6.31934L7.09914 7.01402L6.40419 7.71709L5.00609 7.2026C4.2275 6.91952 3.54977 6.70532 3.49934 6.72254C3.44071 6.74816 3.05572 7.36555 2.65392 8.08586C2.13486 9.00356 1.93396 9.44918 1.98439 9.53486C2.01801 9.60332 2.55347 10.0922 3.16478 10.6239C4.002 11.3442 4.26973 11.6185 4.22791 11.7302C4.19429 11.8075 4.08564 12.2103 3.98519 12.6219C3.87654 13.0335 3.75928 13.4106 3.71746 13.4451C3.67564 13.4795 3.02251 13.6164 2.26114 13.7538C1.49936 13.8823 0.829826 14.028 0.779396 14.0709C0.695756 14.1393 0.670746 14.5681 0.670746 15.6828C0.670746 16.7975 0.695756 17.2263 0.779396 17.2948C0.829826 17.3376 1.49075 17.4922 2.24433 17.6207C2.99791 17.758 3.65063 17.8866 3.69245 17.921C3.75928 17.9554 4.01881 18.8127 4.23652 19.7131C4.25333 19.7904 3.85153 20.1848 3.13977 20.785C2.52026 21.3003 1.99259 21.7804 1.96758 21.8488C1.90895 22.003 3.34026 24.5843 3.51615 24.6444C3.59159 24.67 4.37838 24.4129 5.27423 24.0786C6.88963 23.4784 7.8191 23.2298 8.46362 23.2298C8.73995 23.2298 8.80679 23.1954 8.87362 23.0068C8.92405 22.8867 8.95725 22.7409 8.95725 22.6725C8.95725 22.6124 8.56366 22.218 8.07822 21.8148C7.12374 21.0004 6.86462 20.6056 6.86462 19.9882C6.86462 19.491 7.00688 19.1734 7.83549 17.8618L8.55545 16.7215L8.58047 15.5812C8.61409 14.0293 8.93225 12.923 9.68542 11.7655C11.3344 9.2186 14.3816 7.9838 17.236 8.70409C17.8891 8.86705 18.9941 9.38156 19.5463 9.76754L19.9399 10.0418L21.3798 10.0246C23.2966 9.99014 23.2216 9.98174 23.6066 10.3333C24.0334 10.7277 24.2511 11.3367 24.3683 12.4513C24.4688 13.3774 24.5192 13.4976 24.7869 13.566C24.921 13.6005 25.0465 13.5148 25.3146 13.2145C26.2019 12.1939 26.5786 11.8167 27.7672 10.7877C28.4704 10.1787 29.0813 9.61298 29.1235 9.5273C29.1821 9.40718 29.0481 9.1073 28.504 8.14676C28.1272 7.4777 27.759 6.86912 27.6922 6.79184C27.5749 6.68054 27.4077 6.72338 26.1354 7.19504L24.7123 7.72676L24.026 7.02368L23.3478 6.31178L23.8583 4.86278C24.2433 3.75649 24.3437 3.37934 24.2769 3.28484C24.076 3.0446 21.682 1.6985 21.573 1.76696C21.5061 1.8014 21.0371 2.3327 20.5348 2.9501C20.0326 3.5591 19.564 4.05638 19.4971 4.05638C19.179 4.02193 17.8649 3.63638 17.7813 3.5591C17.7308 3.50743 17.5886 2.84719 17.4549 2.09287C17.3295 1.33813 17.1954 0.652275 17.1536 0.566595C17.0781 0.438076 16.919 0.420856 15.58 0.420856C14.482 0.420017 14.0634 0.445637 13.9966 0.531317Z" fill="#FF6B00"/>
<path d="M19.8563 11.156C19.8145 11.2161 19.6722 11.902 19.5467 12.6823C19.4127 13.4627 19.279 14.1313 19.2454 14.1742C19.2118 14.217 18.8436 14.3371 18.4418 14.4484C18.04 14.5513 17.6464 14.6626 17.5714 14.6971C17.4627 14.7399 17.1946 14.4656 16.4914 13.608C15.9724 12.9822 15.4951 12.4333 15.4283 12.3988C15.3028 12.3215 12.758 13.7621 12.6825 13.9507C12.6657 14.0108 12.8752 14.7055 13.1511 15.4942L13.6534 16.9348L12.9671 17.6379L12.2807 18.341L10.8826 17.8265C10.1126 17.5434 9.4345 17.3292 9.36767 17.3548C9.30084 17.3804 8.92405 17.9894 8.52225 18.7009C7.96998 19.7043 7.8191 20.0386 7.87773 20.1587C7.91955 20.236 8.44681 20.7245 9.04131 21.2306C9.90354 21.9681 10.1212 22.1911 10.0876 22.328C9.8281 23.3999 9.6272 24.0345 9.53495 24.0857C9.46812 24.1202 8.81499 24.2571 8.07863 24.386C7.34186 24.5146 6.68914 24.6603 6.63871 24.7031C6.55507 24.7716 6.53006 25.2004 6.53006 26.3239C6.53006 27.7045 6.54687 27.859 6.68053 27.9359C6.76417 27.9787 7.40869 28.1161 8.12045 28.2446C8.8318 28.3647 9.46812 28.4932 9.53495 28.5277C9.6272 28.5793 9.85311 29.3164 10.0876 30.3026C10.1126 30.4399 9.89493 30.6713 8.99949 31.4173C8.37998 31.9318 7.86092 32.4118 7.82771 32.4807C7.78589 32.592 9.12536 35.0532 9.33446 35.2334C9.42671 35.3107 9.76127 35.2162 10.8662 34.8046L12.2893 34.2728L12.9675 34.9847L13.6538 35.6966L13.1434 37.1456C12.7584 38.2519 12.6579 38.6207 12.7334 38.7148C12.7838 38.7748 13.3861 39.1608 14.0642 39.5636C14.9096 40.0609 15.3533 40.2839 15.4287 40.2322C15.4955 40.1978 15.9478 39.6749 16.4332 39.0747C16.9272 38.4833 17.3541 37.9688 17.3959 37.9516C17.4627 37.9088 18.9362 38.2775 19.1704 38.3977C19.254 38.4405 19.3631 38.9033 19.5221 39.8294C19.6476 40.5754 19.7899 41.2784 19.8403 41.3818C19.9157 41.5787 19.9489 41.5787 21.4225 41.5787C22.5188 41.5787 22.9374 41.5531 23.0047 41.4758C23.0465 41.4158 23.1888 40.7639 23.306 40.0352C23.4315 39.3065 23.5574 38.6375 23.5906 38.543C23.641 38.4317 23.8669 38.3288 24.4024 38.183C24.821 38.0713 25.231 37.9688 25.3232 37.9428C25.4573 37.9 25.6664 38.1142 26.3946 39.0062C26.8886 39.6152 27.3659 40.1554 27.4409 40.1982C27.5581 40.2583 27.8763 40.1125 28.864 39.538C29.5589 39.1264 30.153 38.7404 30.1784 38.6719C30.2035 38.6035 29.9944 37.9004 29.718 37.12L29.2076 35.6878L29.8939 34.9847L30.5802 34.2817L31.9866 34.7962C32.7651 35.0876 33.4433 35.2934 33.5019 35.2762C33.6946 35.1989 35.0923 32.6008 35.0169 32.4635C34.9837 32.395 34.4478 31.9061 33.8365 31.3744C32.991 30.6541 32.7315 30.3799 32.7733 30.277C32.807 30.1913 32.9156 29.7881 33.0161 29.3765C33.1247 28.9649 33.242 28.5877 33.2838 28.5533C33.3256 28.5188 33.9787 28.3819 34.7405 28.2446C35.5023 28.1161 36.1718 27.9703 36.2305 27.9275C36.3059 27.859 36.3309 27.4302 36.3309 26.3155C36.3309 25.2008 36.3059 24.772 36.2305 24.7036C36.1718 24.6607 35.5105 24.5062 34.7573 24.3776C34.0037 24.2403 33.351 24.1118 33.3092 24.0778C33.2424 24.0433 32.9828 23.1861 32.7651 22.2856C32.7483 22.2083 33.1501 21.814 33.8615 21.2138C34.481 20.6909 35.0082 20.2192 35.0333 20.1503C35.0919 20.0046 33.6606 17.4233 33.4929 17.3548C33.4261 17.3292 32.7479 17.5434 31.9779 17.8265L30.5884 18.3494L29.9021 17.6375L29.2072 16.9344L29.7176 15.511C29.9939 14.7223 30.203 14.0276 30.178 13.9591C30.1112 13.7789 27.5914 12.3211 27.4491 12.3812C27.3822 12.4068 26.9214 12.9473 26.411 13.5815C25.6742 14.5076 25.4565 14.7218 25.3228 14.6878C23.8161 14.2934 23.6488 14.2334 23.5984 14.0876C23.5647 13.9931 23.4311 13.3245 23.3138 12.5958C23.1884 11.8671 23.0543 11.2153 23.0043 11.1636C22.878 11.0103 19.9817 11.0103 19.8563 11.156ZM22.518 19.2079C23.2966 19.3364 24.2257 19.6707 24.9456 20.0827C25.791 20.5716 27.0383 21.8404 27.5155 22.7153C28.8295 25.1164 28.7545 27.9287 27.3146 30.2098C24.7447 34.2829 19.0527 34.6172 16.0224 30.8784C15.4865 30.2098 14.817 28.8548 14.5993 27.9888C14.4152 27.2601 14.3984 25.5704 14.5574 24.8161C15.1265 22.1752 17.1774 19.997 19.714 19.3452C20.6263 19.105 21.6222 19.0533 22.518 19.2079Z" fill="#FF6B00"/>
<path d="M21.1117 20.194C21.0531 20.2197 20.8104 20.4599 20.5676 20.7169C20.0986 21.223 19.0441 21.9774 18.3746 22.2861C18.1486 22.389 17.621 22.5607 17.2028 22.6632L16.4496 22.8606L16.1401 23.4952C15.6956 24.3873 15.4865 25.3046 15.4865 26.3164C15.4865 27.6369 15.7042 28.4685 16.3069 29.4634C16.6251 29.9952 17.1441 30.6466 17.2028 30.5869C17.2196 30.5697 17.3368 29.9779 17.4541 29.2749C17.5714 28.5634 17.6968 27.9372 17.7304 27.8687C17.7641 27.8086 18.1322 27.6713 18.5422 27.56C18.9609 27.4487 19.354 27.337 19.4295 27.303C19.5385 27.2601 19.8063 27.5344 20.5094 28.392C21.0285 29.0178 21.4971 29.5668 21.5639 29.6012C21.698 29.6785 24.2425 28.2463 24.3179 28.0493C24.3347 27.9976 24.1252 27.2946 23.8493 26.5058L23.347 25.0652L24.0252 24.3621L24.7033 23.659L25.7246 24.0362C26.2855 24.242 26.8464 24.4562 26.9718 24.5079L27.206 24.5935L27.0387 24.1647C26.7541 23.3844 26.3437 22.7754 25.5655 21.9782C24.912 21.3003 24.6943 21.1374 24.0166 20.8026C23.5811 20.5884 23.0539 20.3738 22.8362 20.3226C22.3507 20.2024 21.2622 20.1252 21.1117 20.194Z" fill="#FF6B00"/>
</svg>
