<svg width="65" height="59" viewBox="0 0 65 59" fill="none" xmlns="http://www.w3.org/2000/svg">
<path d="M26.6364 4.53161C25.8618 4.6951 25.4479 5.19118 25.1472 6.31333L24.9168 7.17333L24.0334 7.24013C23.5434 7.26593 22.775 7.36408 22.3157 7.44317L21.489 7.59272L20.9814 6.75962C20.3867 5.79115 19.9685 5.46511 19.2702 5.46946C18.9225 5.46638 18.3174 5.75357 16.5096 6.75287C15.2285 7.4659 14.0686 8.14443 13.9215 8.27335C13.5981 8.55776 13.3551 9.38061 13.458 9.83499C13.4999 10.0146 13.7239 10.4795 13.9566 10.8678L14.3745 11.5755L13.7735 12.2236C13.4515 12.5867 12.9618 13.1976 12.6834 13.6061L12.1867 14.3272L11.2004 14.1079C10.1329 13.8557 9.8399 13.9005 9.22561 14.3879C8.94294 14.6044 8.88471 14.7797 8.17033 17.3197C7.45877 19.8492 7.41592 20.0512 7.511 20.4927C7.66756 21.2092 7.94784 21.464 9.01107 21.8164L9.93054 22.1191L9.9889 23.034C10.0224 23.5373 10.1243 24.3737 10.2107 24.8918L10.3769 25.8243L9.70379 26.1952C9.33424 26.3997 8.95831 26.67 8.856 26.7997C8.61872 27.141 8.45945 27.8173 8.54043 28.1876C8.58225 28.3677 9.21326 29.5368 9.95575 30.792C11.0181 32.6167 11.3648 33.1257 11.6935 33.3258C12.3292 33.7208 12.8093 33.6924 13.6516 33.2322L14.3774 32.831L15.0311 33.411L15.6876 33.9805L16.4623 33.9409C17.4164 33.9043 18.3605 33.9889 19.1364 34.1968C19.7028 34.3486 19.7399 34.336 20.4313 33.9368C20.817 33.7141 21.1025 33.4871 21.0584 33.4415C21.0248 33.3988 20.7068 33.2009 20.3548 33.0058C19.5853 32.5637 18.4568 32.3289 17.08 32.308L16.1505 32.2948L15.4618 31.5934C15.0813 31.2105 14.731 30.8807 14.6785 30.8666C14.626 30.8525 14.1427 31.1054 13.5868 31.417L12.5924 31.9822L11.3471 29.9177L10.1001 27.8639L11.1857 27.2105L12.2789 26.5705L11.9692 25.251C11.6992 24.0773 11.567 22.6815 11.5803 21.2914L11.5826 20.8202L10.3344 20.4857L9.0762 20.1486L9.69445 17.8413L10.3127 15.5339L11.6129 15.8823L12.9132 16.2307L13.6085 15.1468C13.9895 14.563 14.6278 13.7341 15.0116 13.3082C15.4058 12.8856 15.8807 12.3721 16.0714 12.1648L16.4228 11.7758L15.7148 10.6418L15.0177 9.51135L17.1481 8.27249L19.2785 7.03362L19.9773 8.24395L20.676 9.45429L22.1506 9.1523C22.9695 8.98943 24.1886 8.84423 24.8685 8.82427L26.1122 8.7977L26.5146 7.42185L26.917 6.046L29.2918 6.70483L31.6637 7.37416L31.3537 8.74101L31.0438 10.1079L31.964 10.6579C33.1525 11.3812 33.7432 11.8205 34.6687 12.6867L35.4205 13.4051L36.6308 12.7063L37.8412 12.0075L39.0695 14.1351L40.2979 16.2626L39.1311 16.883L37.9648 17.5035L38.2984 18.8181C38.6466 20.2042 38.7822 21.2068 38.8304 22.5801L38.851 23.3835L39.5894 23.0194C39.9904 22.8233 40.3502 22.5712 40.3782 22.4667C40.4682 22.131 40.319 20.5065 40.1002 19.436L39.8857 18.3893L40.6978 17.876C41.5869 17.3276 41.756 17.1145 41.868 16.4024C41.9462 15.8163 41.9567 15.8192 40.3535 13.1193C39.3038 11.3318 38.9619 10.8466 38.6514 10.6626C38.0383 10.3075 37.5054 10.3668 36.5672 10.8908C36.1205 11.1309 35.7195 11.3269 35.6675 11.313C35.6254 11.3017 35.3262 11.0757 35.0073 10.7988C34.685 10.5328 34.0872 10.0804 33.6782 9.80191L32.9151 9.29394L33.1288 8.32812C33.3882 7.14987 33.3091 6.69061 32.72 6.16169C32.3387 5.8236 32.205 5.7765 29.7405 5.11616C27.2751 4.45554 27.1357 4.42945 26.6364 4.53161Z" fill="#FF6B00"/>
<path d="M50.0607 15.9C48.2185 15.8113 46.7124 16.2732 45.2032 17.375C43.7929 18.4019 42.9945 19.6604 42.5461 21.5859L42.2516 22.8111L31.0571 29.1855L19.8597 35.5703L18.6261 35.3074C16.6893 34.901 15.4331 35.0588 13.8629 35.8858C10.3021 37.7645 9.22839 42.2758 11.5616 45.5649C12.4751 46.8547 13.7377 47.7218 15.3449 48.1411C16.5301 48.4587 17.1301 48.4849 18.4088 48.2431C19.2117 48.0984 19.612 47.9472 20.4128 47.476C22.0881 46.5088 23.0226 45.2867 23.5144 43.4511L23.7785 42.4656L34.9965 36.0857L46.2154 29.7066L47.7048 30.1056C49.0289 30.4492 49.289 30.4851 50.1113 30.4357C52.5656 30.2954 54.9128 28.8337 56.0966 26.723C56.653 25.7369 57.0071 24.4157 57.0155 23.2935C57.0361 21.7477 57.313 21.7211 53.9127 23.631C52.2592 24.559 50.7446 25.3446 50.5363 25.3677C50.0798 25.4362 49.5317 25.3006 49.1646 25.0339C48.8051 24.7805 47.8478 23.1523 47.782 22.6854C47.7085 22.2051 47.8323 21.7433 48.136 21.3641C48.2601 21.1952 49.676 20.3156 51.3751 19.3435L54.3982 17.6248L54.0085 17.3182C53.065 16.5587 51.3815 15.9617 50.0607 15.9ZM18.6665 39.3087C19.3989 39.7634 19.99 40.7872 19.9986 41.6774C20.0663 44.6967 15.9921 45.8078 14.4822 43.178C13.7658 41.9516 14.014 40.4787 15.0963 39.5435C15.6124 39.0861 16.1026 38.8914 16.8148 38.835C17.5487 38.7839 18.0099 38.9075 18.6665 39.3087Z" fill="#FF6B00"/>
<path d="M24.4769 13.9338C23.2179 13.9337 22.0911 14.2388 20.9369 14.8963C18.3099 16.3957 16.9752 19.3196 17.5734 22.2902C17.7845 23.3473 18.6031 24.949 19.3254 25.6932C21.2877 27.7252 24.1252 28.4179 26.7789 27.5333C28.5219 26.944 29.9949 25.641 30.8292 23.9541C32.3507 20.8775 31.2565 17.0325 28.3107 15.0629C27.4042 14.4597 25.5909 13.9288 24.4769 13.9338ZM27.1422 16.278C28.4778 17.0407 29.504 18.4959 29.787 19.9991C30.439 23.5235 27.4229 26.6827 23.8326 26.2382C21.1022 25.9001 19.0397 23.5716 19.0645 20.8355C19.0822 17.9179 21.5076 15.5779 24.499 15.5703C25.2836 15.5779 26.4267 15.8842 27.1422 16.278Z" fill="#FF6B00"/>
<path d="M52.2305 31.8801C52.0614 31.9248 51.7418 32.1089 51.5334 32.3003C51.3117 32.4993 51.0931 32.6429 51.03 32.626C50.9775 32.6119 50.6592 32.459 50.3144 32.2771C49.4083 31.7984 47.4745 31.0888 46.8436 31.0099C46.355 30.9465 46.233 30.9814 45.6285 31.3926L44.9573 31.8423L45.6897 32.1286C48.3453 33.1662 49.6811 33.76 50.3427 34.1845C50.768 34.4443 51.1325 34.6771 51.164 34.6855C51.1955 34.694 51.4753 34.488 51.7798 34.2323C52.0737 33.9738 52.3536 33.7678 52.3961 33.7792C52.5427 33.8185 53.3608 34.8356 53.3299 34.9511C53.313 35.0142 53.0695 35.2524 52.7835 35.4793L52.2758 35.9052L52.6217 36.6274C53.0621 37.5433 53.3232 38.2878 53.5015 39.1334C53.5742 39.4902 53.6378 39.7994 53.6455 39.8128C53.6532 39.8261 53.9924 39.8607 54.3998 39.891C55.1177 39.9375 55.1464 39.9565 55.1322 40.1774C55.096 41.0669 55.0614 41.4062 55.0027 41.4574C54.9704 41.4938 54.6913 41.4866 54.3969 41.4528C54.092 41.4161 53.7731 41.4314 53.6694 41.4825C53.5628 41.544 53.3746 41.9542 53.1836 42.4987C53.0173 42.9936 52.6298 43.8115 52.3288 44.3041C52.039 44.7996 51.8025 45.2199 51.8179 45.2465C51.8361 45.2627 52.0323 45.4949 52.2648 45.7599L52.6676 46.2276L52.0797 46.7447C51.4254 47.2996 51.4701 47.3009 50.881 46.6036L50.5812 46.2536L49.6295 46.7058C49.1009 46.9577 48.1978 47.2664 47.6109 47.4014L46.5382 47.6309L46.4853 48.1223C46.4571 48.3958 46.4366 48.6825 46.4484 48.7645C46.4546 48.8675 46.2541 48.9033 45.8118 48.8749C45.4592 48.848 45.0938 48.8289 44.991 48.8346C44.8431 48.84 44.8144 48.6972 44.8491 48.1895L44.8993 47.5397L43.9411 47.2154C43.3966 47.0244 42.6256 46.672 42.1253 46.3578C41.6509 46.073 41.1869 45.7916 41.1008 45.7347C40.9937 45.6723 40.8266 45.7514 40.5888 45.9686C40.3932 46.1521 40.1877 46.333 40.1421 46.3771C40.086 46.4183 39.8106 46.1875 39.5186 45.8502L38.9967 45.2385L39.435 44.8616C39.67 44.6548 39.8789 44.4636 39.8845 44.4426C39.8901 44.4216 39.69 43.9519 39.4407 43.4132C39.1915 42.8746 38.8857 41.9604 38.769 41.3897C38.6417 40.8162 38.4969 40.35 38.431 40.3437C38.3757 40.3401 38.0812 40.3062 37.7764 40.2691L37.2352 40.1916L37.2789 39.7765C37.2987 39.5346 37.3333 39.1953 37.3395 39.0061L37.3636 38.664L38.0267 38.7066L38.6898 38.7497L38.9656 38.0145C39.1201 37.606 39.5461 36.6863 39.9221 35.9554C40.2954 35.235 40.5952 34.6183 40.5798 34.5917C40.5644 34.565 40.037 34.7722 39.4109 35.0538L38.2751 35.5586L37.9116 36.3266L37.5515 37.0843L37.1282 37.0272C36.5737 36.9574 36.139 37.1107 35.9622 37.4344C35.8753 37.5907 35.7674 38.3715 35.6983 39.3417C35.5506 41.4041 35.6157 41.5792 36.5661 41.7663L37.2068 41.8929L37.3047 42.324C37.3536 42.5617 37.5166 43.044 37.6503 43.3834L37.9037 43.9907L37.5769 44.3299C37.135 44.7622 36.9945 45.2865 37.2361 45.6435C37.3313 45.7928 37.8575 46.4282 38.4005 47.0456C39.6257 48.4302 39.8976 48.5481 40.6404 48.0393L41.1199 47.7185L41.956 48.1221C42.4025 48.3431 42.8777 48.5825 42.9877 48.6345C43.1474 48.7111 43.1896 48.8457 43.1606 49.1639C43.1169 49.579 43.4501 50.2646 43.7228 50.3377C43.9849 50.4079 46.8576 50.5932 47.1584 50.5612C47.6231 50.5061 47.9403 50.1186 48.0298 49.4906C48.0988 48.9809 48.0987 48.9809 48.5699 48.8594C48.8238 48.7923 49.2928 48.637 49.6083 48.5081L50.1757 48.2778L50.5198 48.6285C50.8798 49.0059 51.306 49.1764 51.6761 49.096C51.7952 49.0716 52.4593 48.5643 53.1432 47.9829C54.7437 46.6246 54.8876 46.2138 54.0904 45.3707L53.7926 45.055L54.0782 44.5357C54.2304 44.2618 54.4508 43.8152 54.5631 43.5643C54.7582 43.0884 54.7582 43.0884 55.2602 43.1441C55.8147 43.2139 56.478 42.9197 56.5735 42.563C56.655 42.2588 56.8164 39.5594 56.7802 39.1904C56.7285 38.6709 56.3222 38.3819 55.5938 38.3331C55.2517 38.309 54.9783 38.2808 54.9734 38.257C54.9657 38.2436 54.904 38.0137 54.8292 37.7465C54.7549 37.4794 54.6117 37.0474 54.5002 36.7929L54.3001 36.3232L54.7573 35.9175C55.263 35.4573 55.4062 35.0908 55.2467 34.6776C55.1514 34.4048 53.6664 32.6466 53.1058 32.1371C52.7633 31.8207 52.6405 31.7765 52.2305 31.8801Z" fill="#FF6B00"/>
<path d="M45.8568 35.3654C43.4886 35.5625 41.5654 37.3287 41.3096 39.5423C41.1673 40.7857 41.3581 41.6685 42.02 42.7225C43.6253 45.2884 47.1595 45.7742 49.4005 43.7446C50.8656 42.4288 51.3666 40.2252 50.6253 38.419C50.3096 37.6261 49.6904 36.8312 49.0246 36.3381C48.3011 35.8064 46.6611 35.2993 45.8568 35.3654ZM48.0904 37.6835C48.6951 38.1941 49.081 38.7693 49.2608 39.4808C49.4015 40.0466 49.3879 40.2232 49.1772 41.0096C48.9608 41.8171 48.8927 41.9452 48.4586 42.3908C47.2661 43.6113 45.2837 43.7096 44.0252 42.619C42.2861 41.0967 42.6171 38.3526 44.6642 37.3386C44.9881 37.1782 45.4648 37.0363 45.7313 37.0063C46.4434 36.9499 47.602 37.2829 48.0904 37.6835Z" fill="#FF6B00"/>
</svg>
