<svg width="46" height="47" viewBox="0 0 46 47" fill="none" xmlns="http://www.w3.org/2000/svg">
<path d="M23.1838 0.755312C22.5224 1.05517 21.8365 1.7268 21.5792 2.33874C21.4323 2.66257 21.2974 2.75845 20.599 2.9864C18.9085 3.51421 17.5976 4.33013 16.3112 5.6372C15.1107 6.87283 14.0326 8.5042 13.4202 10.0157C13.2488 10.4354 13.1754 10.5073 12.9301 10.4594C12.489 10.3753 12.0973 10.7593 12.0114 11.359L11.9379 11.875L13.065 12.9067L14.192 13.9261L13.8613 14.3458C13.1139 15.3056 12.8691 16.7447 13.2733 17.8962C13.5061 18.5678 14.2899 19.4674 14.9149 19.7795C15.307 19.9713 15.417 20.1273 15.5888 20.6434C17.0346 24.9617 19.2886 28.3086 21.3344 29.1959C23.0494 29.9395 26.0998 29.9038 27.7414 29.124C29.7138 28.1883 31.821 25.0336 33.2173 20.8953C33.4746 20.1278 33.6094 19.9116 33.8173 19.8519C34.2954 19.7438 35.1037 18.9523 35.4344 18.2807C36.0838 16.9853 35.9365 15.4137 35.0667 14.4182C34.8339 14.1423 34.6381 13.9026 34.6381 13.8664C34.6381 13.8425 35.1646 13.3988 35.8021 12.8827C37.027 11.9112 37.1005 11.7909 36.8312 11.0596C36.7453 10.8077 36.5739 10.6399 36.2432 10.52C35.8146 10.3522 35.6917 10.1962 35.1162 9.09264C34.0626 7.07728 32.5069 5.2659 30.9018 4.18678C30.2278 3.73088 28.7826 3.05925 28.0842 2.87924C27.6675 2.77114 27.5576 2.67526 27.4227 2.31524C27.3368 2.06332 27.0186 1.64361 26.7248 1.3555C25.7811 0.45545 24.3598 0.215752 23.1838 0.755312ZM25.2421 2.62685C25.4259 2.77067 25.6218 3.08275 25.6952 3.32245C25.7566 3.57437 25.8176 5.03795 25.8176 6.60916V9.46394H26.7363H27.655V7.12522C27.655 5.21796 27.6915 4.78603 27.8264 4.78603C27.9118 4.78603 28.4389 5.00176 28.9779 5.2659C30.2029 5.86562 31.6856 7.19713 32.5429 8.45673C33.1429 9.33234 34.3558 11.5874 34.2579 11.6715C34.2334 11.6837 33.4491 12.3074 32.5304 13.0392L30.8528 14.3825H24.213H17.5731L16.1888 13.1107C15.417 12.4151 14.7925 11.7674 14.7925 11.6833C14.7925 11.6114 15.1477 10.8434 15.5888 9.98C16.4586 8.2645 17.3408 7.13697 18.5288 6.18945C19.2147 5.64942 20.8198 4.78603 21.1506 4.78603C21.2485 4.78603 21.2854 5.44591 21.2854 7.12522V9.46441H22.2656H23.2448V6.5255C23.2448 3.35864 23.3062 2.97465 23.8693 2.57891C24.2619 2.31477 24.8619 2.33874 25.2421 2.62685ZM33.4006 15.534C33.8907 16.1459 33.8782 17.2373 33.3762 17.813C33.2048 17.993 32.8616 18.1848 32.5064 18.2689L31.9184 18.4127L31.3304 20.164C30.7059 22.0233 29.6518 24.3023 28.9904 25.2503C28.3899 26.1137 27.2874 27.2055 26.7363 27.4931C26.3322 27.7093 25.977 27.7573 24.715 27.793C23.8328 27.817 22.963 27.7808 22.6813 27.7089C20.8194 27.2172 18.957 24.566 17.4627 20.2359L16.8133 18.3648L16.3357 18.3046C15.7597 18.2205 15.1962 17.7289 15.0373 17.1409C14.8904 16.6131 15.0618 15.8696 15.3925 15.5457L15.6373 15.306L16.2253 15.7497C16.5435 15.9894 16.9112 16.2174 17.0581 16.2536C17.193 16.2775 20.5371 16.2897 24.4818 16.2775L31.6606 16.2413L32.2606 15.7375C32.5914 15.4616 32.9221 15.2337 33.008 15.2219C33.0824 15.2219 33.2658 15.3657 33.4006 15.534Z" fill="#FF6B00"/>
<path d="M8.76463 27.3851C8.05423 28.7885 7.79695 28.8844 6.21679 28.3086L5.29807 27.9608L3.93823 29.2801L2.56639 30.5994L2.92159 31.5469C3.49711 33.1064 3.42367 33.3343 1.97839 34.0299L0.948792 34.5347V36.4298V38.3253L1.94095 38.7934C2.88415 39.2493 3.26383 39.6088 3.27631 40.077C3.27631 40.1611 3.12943 40.6767 2.94559 41.2285L2.60239 42.2122L3.97423 43.5554L5.34607 44.8869L6.39967 44.5152C7.39183 44.1674 7.47775 44.1552 7.88191 44.3234C8.23711 44.4672 8.37199 44.6472 8.78863 45.5111L9.26623 46.531H11.2021H13.1504L13.665 45.5111C14.3634 44.1199 14.5717 44.0358 16.0659 44.5274L17.144 44.8874L18.4914 43.5559L19.8512 42.2366L19.4835 41.181C18.9814 39.7174 19.0669 39.5134 20.4882 38.8296L21.5293 38.3257V36.4185V34.5234L20.5126 34.0675C19.6794 33.6836 19.4715 33.5275 19.2997 33.1797C19.0914 32.76 19.1038 32.736 19.471 31.7166L19.8507 30.685L18.4909 29.3412L17.119 27.998L16.1144 28.3335C15.5509 28.5136 15.0243 28.6574 14.9384 28.6574C14.4608 28.6452 14.0931 28.2734 13.6275 27.3498L13.1504 26.3779H11.2146H9.27919L8.76463 27.3851ZM12.403 29.1246C12.7952 29.8921 12.8686 29.9644 13.4077 30.1562C13.7259 30.2638 14.1915 30.4438 14.4243 30.5642C14.841 30.7921 14.853 30.7799 15.7352 30.48L16.6419 30.1684L17.132 30.66L17.6341 31.1399L17.3034 32.0512C17.0216 32.807 16.9971 33.011 17.1195 33.1548C17.2054 33.2507 17.4013 33.6704 17.5482 34.0901C17.8054 34.8097 17.8419 34.8459 18.6872 35.2895L19.5694 35.7454V36.4298V37.1254L18.6507 37.569C18.0258 37.8689 17.732 38.0851 17.732 38.2167C17.732 38.3366 17.5606 38.7807 17.3643 39.2004L16.9966 39.9562L17.3029 40.8078L17.6216 41.6599L17.1195 42.1398L16.6294 42.6314L15.7107 42.3198C14.9269 42.0557 14.755 42.0317 14.5712 42.1638C14.4608 42.2479 14.0197 42.4397 13.591 42.5835C12.8317 42.8354 12.8192 42.8471 12.4026 43.6631L11.9739 44.4907H11.239H10.5042L10.0755 43.6631C9.68335 42.8956 9.60991 42.8232 9.07087 42.6314C8.75263 42.5233 8.29903 42.3433 8.06623 42.2235C7.64959 42.0077 7.63759 42.0077 6.90223 42.2836C6.49807 42.4397 6.08143 42.5717 5.97103 42.5717C5.86063 42.5717 5.57887 42.3677 5.32159 42.1158L4.88047 41.6721L5.19919 40.7843C5.50543 39.9444 5.51743 39.8965 5.32159 39.5247C5.19919 39.3207 5.01535 38.8771 4.88047 38.5532C4.67215 38.0014 4.59871 37.9173 3.81439 37.5338L2.96911 37.1141L2.93263 36.4302L2.89567 35.7346L3.81439 35.2905C4.59823 34.9187 4.74559 34.7866 4.81903 34.475C4.86799 34.2833 5.03935 33.8391 5.21119 33.5035L5.51743 32.8799L5.19919 32.04L4.88047 31.2123L5.41951 30.6967L5.95855 30.1806L6.81631 30.4923C7.68607 30.8043 7.68607 30.8043 8.07823 30.5881C8.29855 30.4565 8.76415 30.2643 9.10735 30.1562C9.71983 29.964 9.75679 29.9283 10.112 29.1246L10.4917 28.2969H11.2266H11.9744L12.403 29.1246Z" fill="#FF6B00"/>
<path d="M9.70785 31.7395C8.22561 32.2673 7.30689 33.0588 6.65745 34.4025C6.30225 35.1343 6.27777 35.2899 6.27777 36.4536C6.27777 37.6173 6.30225 37.7729 6.66993 38.5169C7.17201 39.5725 8.05425 40.4364 9.13233 40.928C9.89169 41.288 10.0511 41.312 11.2395 41.312C12.428 41.312 12.5869 41.288 13.3467 40.928C14.4863 40.4002 15.1967 39.7286 15.7477 38.6368C16.1888 37.7612 16.2008 37.677 16.2008 36.4658C16.2008 35.2899 16.1763 35.1343 15.8087 34.3903C15.3066 33.3347 14.4243 32.4708 13.3463 31.9792C12.6479 31.6676 12.3541 31.5957 11.4229 31.5713C10.6026 31.5355 10.1615 31.5835 9.70785 31.7395ZM12.2442 33.5988C12.8936 33.7906 13.8613 34.6545 14.1186 35.2782C14.4493 36.0696 14.4128 37.0176 14.0082 37.8213C12.9181 40.0045 9.86721 40.1243 8.59329 38.0371C7.73553 36.6576 8.07873 35.0023 9.42657 34.0186C10.1859 33.4668 11.2515 33.3107 12.2442 33.5988Z" fill="#FF6B00"/>
<path d="M28.268 30.6483C27.5087 31.3918 26.541 32.0038 25.6463 32.2797C24.164 32.7473 22.3875 32.3995 21.2485 31.4163C20.9912 31.2001 20.7709 31.0445 20.7464 31.0685C20.673 31.1766 20.1829 32.5917 20.1829 32.7238C20.1829 32.8079 20.6975 33.1078 21.3344 33.3954C21.9714 33.6836 22.5104 33.9834 22.5349 34.0553C22.5963 34.2471 23.4291 34.4153 24.2869 34.4153C25.8306 34.4153 27.4107 33.8274 28.8565 32.7121L29.6403 32.1123L31.0861 32.4841C36.0109 33.7197 40.017 36.5745 41.8789 40.1973C42.4299 41.2647 42.896 42.7762 43.0184 43.8558L43.1039 44.6115H30.9383H18.7856L18.0627 45.2954L17.3523 45.991L16.2128 45.5952C15.5879 45.3913 15.0368 45.2112 14.9999 45.2112C14.9264 45.2112 14.3015 46.3266 14.3015 46.4708C14.3015 46.5066 21.2231 46.531 29.6759 46.531H45.0503V45.2954C45.0503 41.5048 43.7149 38.47 40.7749 35.603C38.7167 33.5999 36.1933 32.1123 33.1429 31.1169C32.0039 30.7451 29.3451 30.097 28.953 30.097C28.868 30.0965 28.5618 30.3484 28.268 30.6483Z" fill="#FF6B00"/>
</svg>
