<svg width="57" height="53" viewBox="0 0 57 53" fill="none" xmlns="http://www.w3.org/2000/svg">
<path d="M35.7852 0.967953C34.9564 1.27347 34.3129 2.01504 34.1384 2.89854C34.0837 3.12768 33.9857 3.19323 33.5057 3.31293C32.5681 3.52041 31.4121 4.16394 30.605 4.90552L29.8634 5.59237L28.8927 5.11243C28.3472 4.8508 27.5401 4.54527 27.0932 4.4364C26.4605 4.28364 26.2645 4.18561 26.2428 4.02201C26.2211 3.91315 26.0792 3.5643 25.9373 3.26962C25.4465 2.27724 24.5961 1.90617 22.8507 1.90617C21.8259 1.90617 21.0404 2.10226 20.5388 2.47332C20.1677 2.76744 19.7317 3.47652 19.6337 3.98895C19.5789 4.22892 19.4917 4.28365 18.9468 4.38168C17.4962 4.65414 16.1441 5.37405 15.0206 6.48669C13.3192 8.15508 12.0869 10.8711 11.8577 13.4555C11.7922 14.2187 11.7813 14.2626 11.4542 14.3937C10.2002 14.9278 9.46942 16.6293 9.55663 18.8215L9.58912 19.6286L11.0067 19.9011L12.4135 20.1844L12.5332 20.6643C12.6529 21.1226 12.6312 21.1984 12.3371 21.7439C11.4866 23.2493 12.0755 26.2264 13.4497 27.4479C13.9297 27.8731 14.0169 28.015 14.2785 28.8985C14.6604 30.1634 15.3364 31.5485 16.0124 32.4428L16.5471 33.1405L16.4707 35.0055C16.3943 36.6847 16.3619 36.903 16.1327 37.3066C15.5872 38.2334 14.2135 39.0297 10.5707 40.5128C6.72088 42.0832 5.11747 42.9992 3.54712 44.5479C1.76986 46.2818 0.951907 48.2449 0.646387 51.4403L0.570007 52.1819H23.0035C44.3135 52.1819 45.4262 52.1711 45.3714 51.9858C45.3498 51.8878 45.2951 51.4078 45.2517 50.9279C45.1429 49.5103 44.859 48.4524 44.1391 46.7509C44.0958 46.6529 45.3606 46.6198 50.2575 46.6198C54.4561 46.6198 56.43 46.5873 56.43 46.511C56.43 46.4454 56.3753 45.9221 56.3211 45.3333C56.092 43.2614 55.5579 41.8324 54.4778 40.4804C53.1582 38.8228 51.5223 37.721 48.1958 36.2601C44.9895 34.8425 43.6261 33.9806 43.2773 33.1302C43.1684 32.8902 43.1245 32.3014 43.1245 31.3415V29.9131L43.4956 29.4007C43.6916 29.1282 44.008 28.6044 44.1932 28.2447C44.5096 27.5904 45.0876 25.9984 45.0876 25.7476C45.0876 25.6712 45.2295 25.5076 45.4039 25.3771C46.1347 24.8424 46.6038 23.8939 46.8323 22.498C46.952 21.6909 46.8432 20.8513 46.5268 20.2516C46.3416 19.8914 46.3416 19.8481 46.5701 18.9321C46.7993 18.0161 46.8209 17.9944 47.1698 17.918C47.3773 17.8742 48.0533 17.7328 48.6638 17.6017L49.7981 17.3509L49.7217 16.2605C49.5797 14.0141 49.1112 13.0651 47.8675 12.4324C47.7147 12.356 47.6383 12.1924 47.6167 11.8869C47.5186 10.5126 46.9731 8.65839 46.2863 7.39356C45.1195 5.2344 43.6472 3.96901 41.5969 3.36937C40.8114 3.14022 40.7789 3.11856 40.7026 2.73667C40.539 1.94038 39.7757 1.14465 38.9795 0.926342C38.4134 0.761044 36.2759 0.793533 35.7852 0.967953ZM38.5445 7.1952C38.5993 10.8814 38.6209 11.2525 38.7953 11.5249C39.1225 12.0049 39.8972 12.1246 40.3115 11.7541C40.7915 11.3397 40.8348 11.0017 40.8348 8.17674C40.8348 6.11562 40.8673 5.50459 40.9767 5.50459C41.0423 5.50459 41.4242 5.65734 41.8055 5.83176C42.8743 6.33336 43.7578 7.30407 44.423 8.68917C45.0443 9.98706 45.2951 10.9031 45.4262 12.4079C45.5464 13.8254 45.7533 14.1093 46.9748 14.4906C47.1823 14.5562 47.3784 14.9814 47.3784 15.3633C47.3784 15.6033 47.302 15.6358 45.8844 15.8541C43.7469 16.1813 42.5471 16.2901 39.6355 16.4104C35.7641 16.5632 36.1893 16.6173 35.8838 15.9413C35.5891 15.2761 34.9678 14.6217 34.4445 14.4251C34.0957 14.3054 34.0843 14.2723 34.0193 13.5855C33.8341 11.6988 32.9175 9.11383 31.9474 7.79427C31.7405 7.51041 31.5655 7.22712 31.5655 7.16158C31.5655 6.82357 33.4413 5.50401 33.9321 5.50401C34.0301 5.50401 34.074 6.23475 34.0957 8.39391L34.1282 11.2838L34.4662 11.6218C34.9461 12.0909 35.4916 12.0909 35.971 11.6218L36.309 11.2838L36.3415 7.18324L36.374 3.09348L37.4319 3.12654L38.4898 3.15903L38.5445 7.1952ZM24.0398 8.36199L24.0945 12.4842L24.3783 12.7675C24.9671 13.3563 25.9595 13.073 26.2103 12.2551C26.2867 12.0151 26.33 10.8158 26.33 9.21243V6.5625L26.7119 6.62805C27.4535 6.74775 28.5114 7.35879 29.2638 8.11119C30.7908 9.60516 31.6196 11.6338 31.8374 14.404C31.9246 15.4619 32.1537 15.9088 32.7317 16.1488C33.7571 16.5848 33.8552 16.6943 33.9965 17.4575L34.0621 17.8063L32.6228 18.0246C29.5038 18.5262 27.6171 18.6351 22.8946 18.6351C18.2161 18.6351 16.4821 18.5262 13.3084 18.0463C12.5343 17.926 11.8799 17.828 11.8685 17.828C11.7705 17.828 11.8361 17.3589 11.9996 16.9661C12.1193 16.6606 12.2721 16.497 12.5121 16.4098C13.7444 15.9407 13.9405 15.6466 14.0499 14.0757C14.2244 11.611 15.097 9.5607 16.6018 8.06673C17.2562 7.41237 18.4452 6.74718 19.1537 6.63774L19.5573 6.57219L19.5898 9.52764L19.6223 12.4831L19.9055 12.7664C20.4944 13.3552 21.4867 13.0719 21.7375 12.254C21.8139 12.0032 21.8572 10.5092 21.8572 8.09865C21.8572 6.0267 21.8897 4.30359 21.9336 4.2597C21.9775 4.21638 22.4569 4.20498 23.0024 4.21638L23.9839 4.24887L24.0398 8.36199ZM44.4007 18.5046C44.3791 18.581 44.2155 19.0609 44.0519 19.5733L43.7464 20.5001L44.2155 20.9693L44.6846 21.4275L44.6082 22.1036C44.5102 23.0743 44.2594 23.5103 43.703 23.7178C43.4522 23.805 43.2231 23.9139 43.1906 23.9361C43.169 23.9686 43.0379 24.4816 42.9182 25.0812C42.624 26.5097 41.9041 28.015 41.2606 28.5275L40.8023 28.8871L40.8787 31.2321C40.9551 33.5663 40.9551 33.5879 41.2823 34.1876C42.0785 35.6924 43.3217 36.5542 47.1168 38.2226C49.1671 39.1386 49.8106 39.4658 50.8469 40.164C51.7959 40.7859 52.7666 41.7674 53.2243 42.5415C53.4643 42.945 53.9226 44.1341 53.9226 44.3518C53.9226 44.3951 51.3268 44.439 48.1536 44.439H42.3835L41.7947 43.9699C40.1804 42.6612 38.6648 41.8432 35.2186 40.4581C31.7068 39.0405 30.4312 38.2876 29.7768 37.2952C29.4929 36.8808 29.4929 36.8369 29.4929 34.9286V32.9871L29.8965 32.4747C30.4312 31.7765 31.2708 29.977 31.598 28.8649C31.8271 28.0578 31.9143 27.905 32.4159 27.4473C32.7761 27.1093 33.0811 26.6949 33.2994 26.2258C33.6266 25.5059 33.9646 24.1316 33.9646 23.4773C33.9646 22.954 33.6699 21.8852 33.4299 21.5467C33.2447 21.285 33.2333 21.2087 33.3536 20.7179L33.4955 20.1832L34.9022 19.8999L36.309 19.6275L36.3415 19.18L36.374 18.7331L39.1767 18.6568C40.7145 18.602 42.2957 18.5371 42.6884 18.4932C43.8883 18.3518 44.4663 18.3518 44.4007 18.5046ZM17.9322 20.784C20.9965 20.9915 26.8641 20.9151 30.2339 20.5988C31.1283 20.5115 31.1283 20.5115 30.8444 21.362L30.6592 21.8858L31.1824 22.3982L31.7057 22.8998L31.6407 23.7503C31.5968 24.3938 31.5096 24.7643 31.2696 25.2226C30.9755 25.8114 30.9316 25.8445 30.43 25.9533L29.8845 26.0622L29.6993 27.0985C29.3504 28.996 28.6636 30.5447 27.7579 31.439L27.1691 32.0278L27.2238 34.6669C27.2785 37.2296 27.2893 37.3283 27.5618 37.9279C27.889 38.6586 28.74 39.5855 29.656 40.2398C30.572 40.8942 31.7063 41.4397 34.4873 42.5734C38.3587 44.1551 39.4822 44.7873 40.889 46.2271C41.838 47.187 42.3065 47.9719 42.6776 49.1717C42.8081 49.5753 42.9068 49.9349 42.9068 49.9566C42.9068 49.9783 33.9532 50.0005 23.0035 50.0005C5.99014 50.0005 3.10024 49.9788 3.10024 49.8477C3.10024 49.5314 3.64573 48.103 3.99457 47.5142C4.19065 47.1761 4.69282 46.5543 5.11804 46.1399C6.43759 44.8203 7.86658 44.0132 11.5528 42.5301C15.9041 40.7631 17.344 39.8146 18.26 38.0915L18.631 37.4046L18.6749 34.6669L18.7296 31.9406L18.2714 31.5809C17.4534 30.9266 16.4719 28.9202 16.1886 27.3059C15.9594 25.9425 16.0033 26.0411 15.4795 25.9539C14.9123 25.8775 14.6507 25.5942 14.3999 24.8304C13.9964 23.5325 14.0836 22.8565 14.7379 22.311C15.1523 21.9622 15.1523 21.973 14.9232 20.8934L14.8468 20.5229L15.5992 20.5993C16.013 20.6312 17.0595 20.7185 17.9322 20.784Z" fill="#FF6B00"/>
</svg>
