<svg width="27" height="16" viewBox="0 0 27 16" fill="none" xmlns="http://www.w3.org/2000/svg">
<path d="M25.5051 7.39172C25.5037 7.39049 25.5037 7.39049 25.5051 7.39172L18.9219 1.33521C18.316 0.777766 17.3326 0.777766 16.7266 1.33521C16.1207 1.89266 16.1207 2.79743 16.7266 3.35487L20.6604 6.97395L2.46267 6.97271C1.60552 6.97271 0.910925 7.61174 0.910924 8.40032C0.912268 8.79461 1.08558 9.15182 1.36637 9.41015C1.64716 9.66848 2.03544 9.82792 2.46267 9.82792L20.6618 9.82792L16.728 13.447C16.1221 14.0044 16.1221 14.9092 16.728 15.4667C17.3339 16.0241 18.3173 16.0241 18.9233 15.4667L26.6027 8.40155L25.5051 7.39172Z" fill="#FF6B00"/>
</svg>
