<svg width="93" height="93" viewBox="0 0 93 93" fill="none" xmlns="http://www.w3.org/2000/svg">
<path d="M93 88V12.0711C93 7.61654 87.6143 5.38571 84.4644 8.53553L8.5355 84.4645C5.38568 87.6143 7.61651 93 12.071 93H88C90.7614 93 93 90.7614 93 88Z" fill="#FF6B00"/>
<g clip-path="url(#clip0_1088_4)">
<path d="M77.5051 60.3387C77.5037 60.3373 77.5037 60.3373 77.5051 60.3387L70.9219 53.7555C70.316 53.1496 69.3325 53.1496 68.7266 53.7555C68.1207 54.3614 68.1207 55.3449 68.7266 55.9508L72.6604 59.8846L54.4626 59.8832C53.6055 59.8832 52.9109 60.5778 52.9109 61.435C52.9122 61.8636 53.0855 62.2518 53.3663 62.5326C53.6471 62.8134 54.0354 62.9867 54.4626 62.9867L72.6617 62.9867L68.728 66.9205C68.122 67.5264 68.122 68.5099 68.728 69.1158C69.3339 69.7217 70.3173 69.7217 70.9232 69.1158L78.6027 61.4363L77.5051 60.3387Z" fill="white"/>
</g>
<defs>
<clipPath id="clip0_1088_4">
<rect x="65.435" y="48" width="19" height="19" rx="3" transform="rotate(45 65.435 48)" fill="white"/>
</clipPath>
</defs>
</svg>
