<svg width="57" height="57" viewBox="0 0 57 57" fill="none" xmlns="http://www.w3.org/2000/svg">
<g id="03847d5a7b67b24cea67d7d95fefec5f 1">
<g id="Group">
<g id="Group_2">
<path id="Vector" d="M19.3846 4.32619C16.807 4.7611 15.3473 6.48478 15.1768 9.27949L15.0993 10.6304L14.2141 10.8789C12.5372 11.3606 11.2792 12.7115 10.9531 14.3884C10.8756 14.8387 10.7981 16.2671 10.7981 17.5405V19.8541L10.1928 20.6151C9.04365 22.0749 8.6247 23.9068 8.6247 27.4631V29.466H7.18089C5.50395 29.466 4.33944 29.1708 3.82701 28.6276C3.32883 28.0992 3.25131 27.1832 3.63948 26.5619C4.07439 25.8785 4.55547 25.5992 5.61168 25.4282C7.14897 25.1796 7.69218 24.1394 6.80754 23.0991C6.40398 22.6021 6.37263 22.6021 5.36373 22.6642C3.45309 22.8045 1.80693 23.8755 0.999806 25.5216C0.627026 26.2672 0.627026 26.3447 0.580286 31.298C0.533546 36.9347 0.611066 37.6176 1.54302 39.0306C2.13297 39.9158 3.31344 40.7697 4.50873 41.1892C4.99038 41.3602 5.95254 41.4999 7.02414 41.5466L8.76321 41.6087L8.80995 44.7455C8.85669 47.5561 8.90286 47.9597 9.2289 48.752C9.71055 49.9786 10.8437 51.1899 12.0857 51.7952C14.0887 52.7893 13.4366 52.7579 33.9338 52.7579C52.1636 52.7579 52.5677 52.7579 53.3902 52.4473C54.4151 52.0591 55.4399 51.081 55.9678 49.9627L56.3713 49.1088L56.4181 32.5714C56.4488 20.4749 56.4181 15.863 56.2938 15.4127C55.9056 14.0926 54.9115 13.2541 53.095 12.7109C50.502 11.9346 21.5113 4.34158 20.89 4.26349C20.5029 4.21732 19.8195 4.2481 19.3846 4.32619ZM36.9622 11.2979C45.5955 13.5961 52.8316 15.5523 53.0647 15.6458C53.6393 15.9097 53.9032 16.5932 53.6547 17.1831C53.2511 18.1772 54.1979 18.1305 35.1451 18.1305C19.555 18.1305 14.6325 18.2234 13.8562 18.534C13.623 18.6115 13.5922 18.4565 13.5922 16.8725C13.5922 14.8381 13.8094 14.2174 14.6638 13.7204C15.052 13.5032 15.4556 13.4251 16.294 13.4251C16.8994 13.4405 23.7787 14.3257 31.5735 15.3973C41.5422 16.7636 45.8594 17.3074 46.1079 17.1985C46.9931 16.8725 47.2724 15.6145 46.589 14.947C46.3872 14.7298 46.1233 14.5588 46.0144 14.5588C45.9055 14.5434 39.5546 13.689 31.9149 12.6488L18.0172 10.7387L17.9704 9.79136C17.8929 8.19194 18.4675 7.33807 19.7716 7.10494C20.0977 7.04281 20.5633 7.02742 20.8119 7.07359C21.0775 7.1209 28.3444 9.01558 36.9622 11.2979ZM53.3908 48.9224C53.2357 49.1709 52.9097 49.5283 52.6766 49.7141L52.2417 50.0402H33.8877C19.2449 50.0402 15.3473 49.9934 14.6485 49.8384C13.3751 49.5431 12.3662 48.8135 11.8845 47.8662C11.5117 47.1206 11.4964 46.9656 11.4964 44.3727V41.6555L15.9218 41.578C20.316 41.5004 20.3473 41.5004 21.2325 41.0809C22.4746 40.5064 23.4373 39.5436 24.0432 38.3324C24.5089 37.3697 24.5402 37.1987 24.5402 35.5992C24.5402 33.9844 24.5095 33.8288 24.0432 32.8661C23.3911 31.546 22.2106 30.4128 20.9686 29.9158C20.0834 29.5743 19.8349 29.543 15.7047 29.4968L11.3727 29.4501L11.4656 26.7791C11.5123 25.2418 11.6366 23.8441 11.7608 23.4873C12.0561 22.5554 13.0342 21.6707 14.1366 21.3133C15.0218 21.034 15.9378 21.0181 34.1989 20.9252C44.7114 20.8784 53.376 20.7855 53.4535 20.7234C53.5156 20.6459 53.5931 26.8572 53.6245 34.5276C53.6547 47.5715 53.6393 48.4875 53.3908 48.9224ZM12.1952 32.2607C20.3627 32.3383 20.1763 32.3229 20.984 33.2235C21.6674 33.9531 21.8538 34.5744 21.7917 35.7543C21.7296 37.0898 21.2325 37.975 20.2698 38.4715C19.6798 38.7662 19.3846 38.7821 12.8626 38.7821C8.54604 38.7821 5.84424 38.72 5.47146 38.6111C4.66377 38.3939 3.70104 37.4934 3.49926 36.7945C3.42174 36.4685 3.34422 35.1951 3.34422 33.9525V31.6702L4.01169 31.9341C4.57086 32.1519 5.73537 32.1986 12.1952 32.2607Z" fill="#FF6B00"/>
<path id="Vector_2" d="M17.7851 34.7141C17.1638 35.3508 17.1485 36.0029 17.7698 36.6242C18.3911 37.2455 19.0431 37.2301 19.6798 36.6088C20.0834 36.1893 20.1455 36.0496 20.068 35.5685C20.0059 35.2579 19.8349 34.8697 19.6798 34.7147C19.5248 34.5596 19.136 34.3886 18.826 34.3265C18.3443 34.2484 18.2047 34.3105 17.7851 34.7141Z" fill="#FF6B00"/>
</g>
</g>
</g>
</svg>
