<svg width="88" height="88" viewBox="0 0 88 88" fill="none" xmlns="http://www.w3.org/2000/svg">
<g id="3aed225f7f220a68ec25137b0ff4262e 1" clip-path="url(#clip0_87_1075)">
<g id="Group">
<g id="Group_2">
<path id="Vector" d="M36.0386 11.2182C35.02 11.4332 34.4758 12.0855 34.0804 13.5611L33.7774 14.6919L32.6159 14.7797C31.9715 14.8137 30.9611 14.9427 30.3572 15.0467L29.2702 15.2434L28.6027 14.1479C27.8208 12.8744 27.2708 12.4457 26.3526 12.4514C25.8954 12.4474 25.0997 12.825 22.7227 14.139C21.0381 15.0766 19.5129 15.9688 19.3194 16.1383C18.8942 16.5123 18.5747 17.5943 18.71 18.1918C18.7652 18.4279 19.0597 19.0392 19.3656 19.5499L19.9152 20.4804L19.1249 21.3326C18.7015 21.81 18.0576 22.6133 17.6915 23.1505L17.0384 24.0986L15.7415 23.8104C14.3377 23.4787 13.9525 23.5376 13.1448 24.1785C12.7731 24.4632 12.6965 24.6937 11.7571 28.0336C10.8215 31.3597 10.7652 31.6252 10.8902 32.2059C11.096 33.148 11.4646 33.483 12.8627 33.9464L14.0717 34.3444L14.1484 35.5474C14.1925 36.2093 14.3264 37.3091 14.4401 37.9903L14.6587 39.2165L13.7735 39.7042C13.2876 39.9731 12.7933 40.3285 12.6587 40.499C12.3467 40.9478 12.1373 41.8371 12.2438 42.324C12.2988 42.5608 13.1285 44.0981 14.1048 45.7487C15.5017 48.1479 15.9576 48.8172 16.3899 49.0804C17.2258 49.5998 17.857 49.5624 18.9646 48.9573L19.9189 48.4297L20.7785 49.1924L21.6418 49.9412L22.6605 49.8891C23.915 49.841 25.1564 49.9523 26.1767 50.2257C26.9214 50.4252 26.9703 50.4087 27.8794 49.8838C28.3866 49.591 28.762 49.2925 28.704 49.2325C28.6598 49.1763 28.2416 48.9162 27.7788 48.6596C26.7669 48.0783 25.283 47.7695 23.4727 47.742L22.2505 47.7247L21.3449 46.8024C20.8445 46.2989 20.384 45.8652 20.3149 45.8467C20.2458 45.8282 19.6103 46.1606 18.8793 46.5704L17.5718 47.3136L15.9344 44.5989L14.2947 41.8984L15.7221 41.0393L17.1596 40.1976L16.7524 38.4626C16.3974 36.9193 16.2235 35.0839 16.2409 33.2561L16.2441 32.6365L14.6027 32.1967L12.9483 31.7534L13.7612 28.7194L14.5742 25.6855L16.2839 26.1436L17.9936 26.6017L18.9079 25.1763C19.409 24.4088 20.2482 23.3187 20.7529 22.7587C21.2712 22.2031 21.8956 21.5279 22.1464 21.2552L22.6085 20.7438L21.6775 19.2527L20.7609 17.7662L23.5622 16.1372L26.3635 14.5082L27.2823 16.0997L28.2012 17.6912L30.1401 17.2941C31.217 17.0799 32.82 16.889 33.714 16.8628L35.3493 16.8278L35.8784 15.0187L36.4076 13.2095L39.5302 14.0759L42.6491 14.956L42.2415 16.7533L41.834 18.5506L43.044 19.2739C44.6068 20.225 45.3834 20.8025 46.6005 21.9416L47.589 22.8861L49.1805 21.9673L50.772 21.0484L52.3872 23.846L54.0024 26.6436L52.4681 27.4594L50.9346 28.2753L51.3732 30.0039C51.831 31.8265 52.0094 33.1448 52.0727 34.9506L52.0999 36.007L53.0707 35.5282C53.5981 35.2704 54.0712 34.9389 54.108 34.8014C54.2263 34.36 54.0301 32.224 53.7424 30.8164L53.4604 29.44L54.5282 28.7651C55.6973 28.044 55.9197 27.7638 56.067 26.8274C56.1698 26.0568 56.1836 26.0605 54.0756 22.5104C52.6952 20.16 52.2457 19.522 51.8374 19.2801C51.0311 18.813 50.3305 18.8911 49.0968 19.5801C48.5095 19.8958 47.9821 20.1535 47.9137 20.1352C47.8585 20.1204 47.465 19.8232 47.0457 19.4592C46.6219 19.1094 45.8358 18.5145 45.298 18.1483L44.2945 17.4803L44.5756 16.2104C44.9167 14.6611 44.8127 14.0572 44.038 13.3617C43.5367 12.9171 43.3608 12.8552 40.1203 11.9869C36.8784 11.1182 36.6951 11.0839 36.0386 11.2182Z" fill="#FF6B00"/>
<path id="Vector_2" d="M66.8399 26.1668C64.4175 26.05 62.4371 26.6574 60.4526 28.1062C58.5982 29.4565 57.5484 31.1114 56.9588 33.6432L56.5716 35.2542L41.8516 43.636L27.1279 52.0317L25.5058 51.6859C22.9591 51.1516 21.3072 51.359 19.2426 52.4465C14.5604 54.9168 13.1486 60.8489 16.2166 65.1737C17.4177 66.8697 19.0779 68.0098 21.1913 68.5613C22.7498 68.9789 23.5387 69.0133 25.2201 68.6953C26.2758 68.5051 26.8022 68.3063 27.8552 67.6867C30.0581 66.4148 31.2868 64.8079 31.9335 62.3943L32.2808 61.0984L47.0316 52.7093L61.7836 44.3212L63.742 44.846C65.4831 45.2977 65.8251 45.3449 66.9064 45.28C70.1336 45.0956 73.22 43.1735 74.7766 40.398C75.5083 39.1015 75.9738 37.3641 75.9849 35.8885C76.012 33.856 76.376 33.821 71.9049 36.3324C69.7307 37.5526 67.7391 38.5857 67.4652 38.6159C66.865 38.7061 66.1443 38.5278 65.6615 38.177C65.1888 37.8438 63.93 35.7029 63.8435 35.0889C63.747 34.4574 63.9097 33.8502 64.3091 33.3516C64.4722 33.1295 66.334 31.9728 68.5682 30.6946L72.5433 28.4346L72.0308 28.0315C70.7903 27.0328 68.5766 26.2478 66.8399 26.1668ZM25.559 56.9473C26.522 57.5451 27.2992 58.8914 27.3106 60.062C27.3996 64.0322 22.0423 65.4931 20.0569 62.0351C19.1148 60.4226 19.4413 58.4858 20.8644 57.256C21.5431 56.6545 22.1877 56.3986 23.1241 56.3245C24.0891 56.2573 24.6956 56.4198 25.559 56.9473Z" fill="#FF6B00"/>
<path id="Vector_3" d="M33.199 23.5815C31.5435 23.5814 30.0619 23.9825 28.5442 24.8471C25.0899 26.8187 23.3348 30.6634 24.1214 34.5694C24.399 35.9595 25.4754 38.0656 26.4252 39.0442C29.0055 41.7161 32.7366 42.627 36.226 41.4637C38.5178 40.6889 40.4547 38.9756 41.5518 36.7574C43.5524 32.7119 42.1136 27.656 38.2401 25.0662C37.0481 24.273 34.6638 23.5749 33.199 23.5815ZM36.7036 26.664C38.4599 27.6669 39.8092 29.5803 40.1814 31.5569C41.0387 36.1912 37.0728 40.3453 32.3518 39.7608C28.7615 39.3163 26.0495 36.2544 26.0821 32.6567C26.1054 28.8203 29.2946 25.7434 33.2281 25.7334C34.2597 25.7433 35.7629 26.1461 36.7036 26.664Z" fill="#FF6B00"/>
<path id="Vector_4" d="M69.6929 47.1794C69.4705 47.2383 69.0503 47.4803 68.7763 47.732C68.4848 47.9937 68.1973 48.1825 68.1144 48.1602C68.0453 48.1417 67.6268 47.9407 67.1733 47.7015C65.9819 47.0721 63.4392 46.139 62.6096 46.0352C61.9671 45.9519 61.8067 45.9977 61.0117 46.5384L60.1292 47.1297L61.0923 47.5062C64.5841 48.8706 66.3406 49.6514 67.2106 50.2096C67.7699 50.5512 68.2491 50.8573 68.2905 50.8684C68.332 50.8795 68.6999 50.6087 69.1003 50.2724C69.4868 49.9325 69.8548 49.6616 69.9107 49.6766C70.1034 49.7283 71.1792 51.0657 71.1385 51.2176C71.1163 51.3005 70.7962 51.6138 70.4201 51.9121L69.7525 52.4722L70.2073 53.4218C70.7864 54.6261 71.1298 55.6051 71.3642 56.717C71.4598 57.1861 71.5434 57.5928 71.5535 57.6103C71.5636 57.6278 72.0097 57.6733 72.5454 57.7132C73.4893 57.7744 73.5271 57.7993 73.5085 58.0897C73.4609 59.2594 73.4154 59.7055 73.3381 59.7729C73.2956 59.8207 72.9287 59.8113 72.5416 59.7668C72.1406 59.7186 71.7213 59.7387 71.5849 59.8058C71.4448 59.8868 71.1973 60.4261 70.9462 61.1421C70.7275 61.7928 70.2179 62.8683 69.8222 63.516C69.4411 64.1676 69.1301 64.7203 69.1503 64.7553C69.1743 64.7765 69.4323 65.0818 69.738 65.4303L70.2677 66.0453L69.4947 66.7252C68.6343 67.4549 68.6931 67.4566 67.9185 66.5398L67.5243 66.0795L66.2729 66.6741C65.5777 67.0054 64.3902 67.4113 63.6185 67.5888L62.208 67.8905L62.1384 68.5368C62.1013 68.8963 62.0744 69.2733 62.0899 69.3811C62.098 69.5166 61.8344 69.5637 61.2529 69.5263C60.7892 69.4909 60.3088 69.4658 60.1735 69.4733C59.9791 69.4804 59.9413 69.2926 59.9869 68.6251L60.053 67.7706L58.7931 67.3442C58.077 67.0931 57.0632 66.6297 56.4054 66.2165C55.7816 65.8421 55.1715 65.472 55.0582 65.3972C54.9174 65.3151 54.6977 65.4191 54.385 65.7048C54.1278 65.9461 53.8576 66.1839 53.7976 66.2419C53.7238 66.2961 53.3617 65.9925 52.9778 65.5491L52.2915 64.7447L52.8678 64.2491C53.1768 63.9773 53.4515 63.7258 53.4589 63.6982C53.4663 63.6706 53.2031 63.0529 52.8754 62.3446C52.5476 61.6364 52.1456 60.4343 51.992 59.6839C51.8247 58.9297 51.6343 58.3168 51.5477 58.3084C51.4749 58.3037 51.0877 58.2592 50.687 58.2103L49.9753 58.1085L50.0327 57.5626C50.0587 57.2446 50.1042 56.7984 50.1124 56.5496L50.1441 56.0998L51.0161 56.1558L51.8879 56.2124L52.2506 55.2457C52.4537 54.7085 53.0139 53.4993 53.5084 52.5382C53.9991 51.591 54.3934 50.78 54.3731 50.745C54.3529 50.7099 53.6595 50.9824 52.8362 51.3526L51.3426 52.0164L50.8647 53.0263L50.3912 54.0226L49.8346 53.9475C49.1054 53.8558 48.5339 54.0573 48.3014 54.4829C48.1871 54.6885 48.0452 55.7151 47.9544 56.9909C47.7601 59.7027 47.8457 59.933 49.0955 60.179L49.9379 60.3455L50.0666 60.9123C50.1309 61.225 50.3452 61.8592 50.5211 62.3054L50.8543 63.1039L50.4245 63.55C49.8435 64.1184 49.6588 64.8078 49.9765 65.2772C50.1016 65.4736 50.7936 66.3091 51.5075 67.1209C53.1186 68.9415 53.4762 69.0966 54.4528 68.4276L55.0834 68.0057L56.1828 68.5365C56.7698 68.827 57.3948 69.1418 57.5393 69.2102C57.7493 69.3109 57.8048 69.4879 57.7667 69.9064C57.7093 70.4522 58.1474 71.3537 58.5059 71.4497C58.8506 71.5421 62.628 71.7857 63.0235 71.7436C63.6345 71.6711 64.0516 71.1617 64.1693 70.3359C64.26 69.6657 64.26 69.6657 64.8796 69.5059C65.2134 69.4177 65.8301 69.2135 66.245 69.044L66.991 68.7412L67.4434 69.2023C67.9168 69.6986 68.4772 69.9228 68.9639 69.817C69.1205 69.7849 69.9938 69.1179 70.8931 68.3534C72.9976 66.5673 73.1867 66.0271 72.1385 64.9185L71.747 64.5034L72.1224 63.8206C72.3226 63.4604 72.6125 62.8732 72.7601 62.5433C73.0166 61.9175 73.0166 61.9175 73.6767 61.9908C74.4058 62.0825 75.278 61.6957 75.4037 61.2267C75.5108 60.8267 75.723 57.2771 75.6754 56.792C75.6074 56.1089 75.0732 55.7288 74.1153 55.6647C73.6655 55.633 73.306 55.5959 73.2996 55.5645C73.2895 55.547 73.2083 55.2447 73.11 54.8933C73.0123 54.5421 72.824 53.9741 72.6774 53.6394L72.4143 53.0217L73.0155 52.4884C73.6804 51.8832 73.8687 51.4013 73.6589 50.8579C73.5336 50.4993 71.581 48.1873 70.8439 47.5175C70.3934 47.1013 70.2321 47.0433 69.6929 47.1794Z" fill="#FF6B00"/>
<path id="Vector_5" d="M61.3119 51.7624C58.1979 52.0216 55.6691 54.344 55.3327 57.2547C55.1456 58.8897 55.3965 60.0505 56.2668 61.4365C58.3776 64.8104 63.0249 65.4492 65.9716 62.7804C67.8982 61.0503 68.5568 58.1527 67.5821 55.7777C67.167 54.7351 66.3528 53.6899 65.4774 53.0414C64.526 52.3423 62.3695 51.6756 61.3119 51.7624ZM64.2489 54.8105C65.0441 55.4819 65.5515 56.2383 65.788 57.1738C65.9729 57.9179 65.9551 58.15 65.678 59.1841C65.3935 60.2459 65.3039 60.4144 64.733 61.0003C63.165 62.6052 60.5583 62.7344 58.9035 61.3004C56.6168 59.2987 57.052 55.6904 59.7437 54.3571C60.1697 54.1462 60.7965 53.9595 61.1469 53.9201C62.0833 53.846 63.6067 54.2838 64.2489 54.8105Z" fill="#FF6B00"/>
</g>
</g>
</g>
<defs>
<clipPath id="clip0_87_1075">
<rect width="71.5162" height="71.5162" fill="white" transform="translate(18.5098) rotate(15)"/>
</clipPath>
</defs>
</svg>
