<svg width="64" height="63" viewBox="0 0 64 63" fill="none" xmlns="http://www.w3.org/2000/svg">
<g id="46b129656b9eb5622087139e42fe40ef 1">
<g id="Group">
<g id="Group_2">
<path id="Vector" d="M32.245 1.01227C31.3631 1.41421 30.4486 2.31448 30.1055 3.13474C29.9097 3.56881 29.7298 3.69733 28.7986 4.00288C26.5446 4.71037 24.7967 5.80405 23.0815 7.55608C21.4809 9.21235 20.0434 11.3991 19.2268 13.4252C18.9983 13.9877 18.9004 14.0841 18.5734 14.0199C17.9852 13.9071 17.463 14.4218 17.3484 15.2257L17.2505 15.9174L18.7532 17.3003L20.2559 18.6668L19.815 19.2293C18.8185 20.5158 18.4921 22.4449 19.031 23.9884C19.3414 24.8886 20.3865 26.0945 21.2198 26.5128C21.7426 26.7698 21.8892 26.979 22.1183 27.6707C24.046 33.4592 27.0514 37.9454 29.7791 39.1348C32.0658 40.1315 36.133 40.0836 38.3218 39.0384C40.9516 37.7841 43.7612 33.5555 45.623 28.0084C45.966 26.9796 46.1458 26.6898 46.423 26.6098C47.0604 26.4649 48.1382 25.404 48.5791 24.5037C49.445 22.7674 49.2486 20.6607 48.0889 19.3264C47.7785 18.9566 47.5174 18.6353 47.5174 18.5867C47.5174 18.5546 48.2194 17.9599 49.0694 17.2682C50.7026 15.9659 50.8006 15.8047 50.4415 14.8244C50.327 14.4867 50.0985 14.2618 49.6575 14.1011C49.086 13.8762 48.9222 13.6671 48.1548 12.1878C46.75 9.4864 44.6758 7.05838 42.5356 5.6119C41.637 5.00079 39.71 4.10052 38.7788 3.85924C38.2233 3.71434 38.0767 3.58582 37.8969 3.10324C37.7823 2.76556 37.358 2.20296 36.9663 1.81678C35.7081 0.610325 33.813 0.289028 32.245 1.01227ZM34.9894 3.52092C35.2345 3.71371 35.4956 4.13203 35.5935 4.45333C35.6754 4.791 35.7567 6.75282 35.7567 8.85891V12.6855H36.9817H38.2066V9.55066C38.2066 6.99412 38.2553 6.41515 38.4351 6.41515C38.549 6.41515 39.2518 6.70432 39.9705 7.05838C41.6038 7.86226 43.5807 9.64705 44.7238 11.3354C45.5238 12.5091 47.141 15.5319 47.0105 15.6446C46.9778 15.661 45.9321 16.497 44.7071 17.4779L42.4703 19.2785H33.6172H24.7641L22.9183 17.5737C21.8892 16.6413 21.0566 15.7732 21.0566 15.6604C21.0566 15.564 21.5302 14.5346 22.1183 13.3773C23.278 11.0778 24.4543 9.56641 26.0383 8.29633C26.9529 7.57246 29.0931 6.41515 29.534 6.41515C29.6646 6.41515 29.7138 7.29967 29.7138 9.55066V12.6862H31.0207H32.3263V8.74677C32.3263 4.50183 32.4082 3.98713 33.159 3.45667C33.6825 3.10261 34.4825 3.13474 34.9894 3.52092ZM45.8674 20.822C46.5209 21.6422 46.5042 23.1051 45.8348 23.8769C45.6063 24.1181 45.1487 24.3752 44.6751 24.488L43.8911 24.6807L43.1071 27.0281C42.2745 29.5204 40.869 32.5753 39.9871 33.846C39.1865 35.0033 37.7164 36.4668 36.9817 36.8523C36.4428 37.1421 35.9692 37.2064 34.2866 37.2543C33.1103 37.2864 31.9506 37.2379 31.575 37.1415C29.0924 36.4825 26.6092 32.9287 24.6169 27.1245L23.751 24.6165L23.1142 24.5358C22.3462 24.4231 21.5948 23.7641 21.383 22.976C21.1871 22.2685 21.4156 21.2718 21.8566 20.8377L22.183 20.5164L22.967 21.1112C23.3913 21.4325 23.8815 21.738 24.0774 21.7865C24.2572 21.8186 28.7161 21.835 33.9756 21.8186L43.5474 21.7701L44.3474 21.0948C44.7884 20.725 45.2294 20.4194 45.3439 20.4037C45.4431 20.4037 45.6876 20.5964 45.8674 20.822Z" fill="#FF6B00"/>
<path id="Vector_2" d="M13.0195 36.7074C12.0723 38.5886 11.7293 38.7171 9.62239 37.9454L8.39743 37.4792L6.58431 39.2476L4.75519 41.016L5.22879 42.2861C5.99615 44.3764 5.89823 44.682 3.97119 45.6144L2.59839 46.291V48.8311V51.3719L3.92127 51.9994C5.17887 52.6105 5.68511 53.0925 5.70175 53.7199C5.70175 53.8327 5.50591 54.5238 5.26079 55.2634L4.80319 56.582L6.63231 58.3826L8.46143 60.1674L9.86623 59.669C11.1891 59.2028 11.3037 59.1864 11.8425 59.412C12.3161 59.6048 12.496 59.8461 13.0515 61.004L13.6883 62.3711H16.2694H18.8672L19.5533 61.004C20.4845 59.1392 20.7622 59.0264 22.7545 59.6854L24.192 60.168L25.9885 58.3832L27.8016 56.6148L27.3113 55.1998C26.6419 53.238 26.7558 52.9646 28.6509 52.0479L30.039 51.3726V48.816V46.2759L28.6835 45.6648C27.5725 45.15 27.2954 44.9409 27.0662 44.4747C26.7885 43.9121 26.8051 43.88 27.2947 42.5135L27.8009 41.1306L25.9878 39.3295L24.1587 37.5289L22.8192 37.9788C22.0678 38.22 21.3657 38.4128 21.2512 38.4128C20.6144 38.3964 20.1241 37.8981 19.5033 36.6602L18.8672 35.3573H16.2861H13.7056L13.0195 36.7074ZM17.8707 39.039C18.3936 40.0678 18.4915 40.1649 19.2102 40.4219C19.6346 40.5662 20.2553 40.8075 20.5657 40.9687C21.1213 41.2743 21.1373 41.2579 22.3136 40.856L23.5225 40.4383L24.176 41.0973L24.8454 41.7405L24.4045 42.9621C24.0288 43.9751 23.9961 44.2485 24.1593 44.4413C24.2739 44.5698 24.535 45.1324 24.7309 45.695C25.0739 46.6595 25.1225 46.708 26.2496 47.3028L27.4259 47.9139V48.8311V49.7635L26.2009 50.3583C25.3677 50.7602 24.976 51.05 24.976 51.2264C24.976 51.387 24.7475 51.9824 24.4857 52.545L23.9955 53.558L24.4038 54.6996L24.8288 55.8418L24.1593 56.485L23.5059 57.144L22.2809 56.7263C21.2358 56.3722 21.0067 56.3401 20.7616 56.5171C20.6144 56.6299 20.0262 56.8869 19.4547 57.0797C18.4422 57.4174 18.4256 57.4332 17.8701 58.5268L17.2985 59.6363H16.3187H15.3389L14.7673 58.5268C14.2445 57.498 14.1466 57.401 13.4278 57.144C13.0035 56.9991 12.3987 56.7578 12.0883 56.5971C11.5328 56.308 11.5168 56.308 10.5363 56.6778C9.99743 56.8869 9.44191 57.064 9.29471 57.064C9.14751 57.064 8.77183 56.7906 8.42879 56.4529L7.84063 55.8582L8.26559 54.6681C8.67391 53.5423 8.68991 53.478 8.42879 52.9797C8.26559 52.7063 8.02047 52.1115 7.84063 51.6775C7.56287 50.9379 7.46495 50.8251 6.41919 50.311L5.29215 49.7484L5.24351 48.8318L5.19423 47.8994L6.41919 47.304C7.46431 46.8057 7.66079 46.6287 7.75871 46.211C7.82399 45.9539 8.05247 45.3586 8.28159 44.9088L8.68991 44.0727L8.26559 42.9469L7.84063 41.8375L8.55935 41.1464L9.27807 40.4547L10.4217 40.8723C11.5814 41.2907 11.5814 41.2907 12.1043 41.0009C12.3981 40.8245 13.0189 40.5668 13.4765 40.4219C14.2931 40.1642 14.3424 40.1163 14.816 39.039L15.3222 37.9296H16.3021H17.2992L17.8707 39.039Z" fill="#FF6B00"/>
<path id="Vector_3" d="M14.2771 42.5443C12.3007 43.2518 11.0758 44.3127 10.2099 46.1139C9.73625 47.0948 9.70361 47.3033 9.70361 48.8632C9.70361 50.4231 9.73625 50.6316 10.2265 51.6289C10.8959 53.0439 12.0723 54.2018 13.5097 54.8608C14.5222 55.3434 14.7347 55.3755 16.3193 55.3755C17.9039 55.3755 18.1158 55.3434 19.1289 54.8608C20.6483 54.1533 21.5955 53.253 22.3302 51.7895C22.9183 50.6158 22.9343 50.5031 22.9343 48.8796C22.9343 47.3033 22.9017 47.0948 22.4115 46.0975C21.742 44.6825 20.5657 43.5246 19.1283 42.8656C18.1971 42.4479 17.8054 42.3515 16.5638 42.3187C15.47 42.2709 14.8819 42.3351 14.2771 42.5443ZM17.6588 45.0366C18.5247 45.2936 19.815 46.4515 20.158 47.2875C20.599 48.3485 20.5503 49.6192 20.0108 50.6965C18.5574 53.6228 14.4895 53.7835 12.791 50.9856C11.6473 49.1366 12.1049 46.9177 13.902 45.5991C14.9145 44.8595 16.3353 44.6504 17.6588 45.0366Z" fill="#FF6B00"/>
<path id="Vector_4" d="M39.0239 41.0815C38.0115 42.0782 36.7212 42.8984 35.5283 43.2682C33.5519 43.8951 31.1833 43.4289 29.6646 42.1109C29.3215 41.8211 29.0278 41.6126 28.9951 41.6447C28.8972 41.7896 28.2438 43.6865 28.2438 43.8636C28.2438 43.9763 28.9299 44.3783 29.7791 44.7638C30.6284 45.15 31.3471 45.552 31.3798 45.6484C31.4617 45.9054 32.5721 46.1309 33.7158 46.1309C35.774 46.1309 37.8809 45.3428 39.8086 43.8478L40.8537 43.0439L42.7814 43.5423C49.3478 45.1985 54.6892 49.0252 57.1718 53.8812C57.9065 55.3119 58.5279 57.338 58.6911 58.7851L58.8051 59.7982H42.5843H26.3807L25.4169 60.7148L24.4697 61.6472L22.9503 61.1168C22.1171 60.8433 21.3823 60.6021 21.3331 60.6021C21.2351 60.6021 20.4019 62.097 20.4019 62.2905C20.4019 62.3383 29.6307 62.3711 40.9011 62.3711H61.4003V60.7148C61.4003 55.6339 59.6198 51.566 55.6998 47.723C52.9555 45.0379 49.591 43.0439 45.5238 41.7096C44.0051 41.2113 40.4601 40.3425 39.9372 40.3425C39.8239 40.3419 39.4156 40.6796 39.0239 41.0815Z" fill="#FF6B00"/>
</g>
</g>
</g>
</svg>
