<svg width="27" height="17" viewBox="0 0 27 17" fill="none" xmlns="http://www.w3.org/2000/svg">
<path id="Vector" d="M26.8569 14.7098C26.8242 14.6393 26.7937 14.5809 26.7654 14.534C26.2969 13.6903 25.4017 12.6548 24.0803 11.427L24.0524 11.3989L24.0384 11.3851L24.0243 11.371H24.0101C23.4104 10.7993 23.0306 10.4149 22.8716 10.2181C22.5806 9.84318 22.5154 9.46371 22.6745 9.07921C22.7868 8.7887 23.2089 8.1752 23.9397 7.23786C24.3241 6.7411 24.6285 6.34296 24.8533 6.043C26.4748 3.88737 27.1777 2.50989 26.9621 1.91002L26.8783 1.76984C26.8221 1.68545 26.6768 1.60824 26.4428 1.53783C26.2082 1.46757 25.9084 1.45595 25.5428 1.50277L21.4943 1.53074C21.4287 1.5075 21.335 1.50967 21.213 1.53783C21.0912 1.566 21.0302 1.58013 21.0302 1.58013L20.9597 1.61533L20.9038 1.65763C20.8569 1.68559 20.8054 1.73478 20.7491 1.8051C20.6931 1.87516 20.6463 1.95739 20.6089 2.05109C20.1681 3.18509 19.6669 4.23942 19.1045 5.21403C18.7577 5.79519 18.4393 6.29884 18.1484 6.72529C17.8579 7.15159 17.6143 7.46568 17.4176 7.66702C17.2207 7.86855 17.0429 8.03 16.8833 8.15196C16.7239 8.27397 16.6022 8.32552 16.518 8.30666C16.4335 8.28781 16.354 8.2691 16.2787 8.25039C16.1476 8.16599 16.0422 8.05122 15.9626 7.90597C15.8828 7.76071 15.829 7.57789 15.8009 7.35765C15.7729 7.13726 15.7564 6.9477 15.7516 6.78832C15.7473 6.62913 15.7493 6.40396 15.7588 6.11346C15.7685 5.82281 15.7729 5.62615 15.7729 5.52305C15.7729 5.16686 15.7799 4.7803 15.7938 4.36325C15.808 3.94621 15.8194 3.61577 15.8291 3.37234C15.8386 3.12866 15.843 2.87085 15.843 2.59906C15.843 2.32726 15.8265 2.11411 15.7938 1.95941C15.7615 1.8049 15.7119 1.65492 15.6466 1.50952C15.5808 1.36427 15.4846 1.25191 15.3584 1.17214C15.2319 1.09247 15.0746 1.02925 14.8875 0.98228C14.3907 0.86987 13.7582 0.809061 12.9895 0.799608C11.2464 0.780897 10.1264 0.893455 9.6297 1.13713C9.4329 1.24009 9.25481 1.38076 9.09557 1.55871C8.92683 1.76497 8.9033 1.87752 9.02511 1.89604C9.58751 1.98028 9.98564 2.18181 10.22 2.50043L10.3044 2.66927C10.3701 2.79108 10.4357 3.00675 10.5013 3.31596C10.5668 3.62517 10.6091 3.96723 10.6278 4.34193C10.6745 5.02619 10.6745 5.61192 10.6278 6.09918C10.5808 6.58664 10.5365 6.96611 10.4942 7.23791C10.4519 7.5097 10.3887 7.72994 10.3044 7.89858C10.22 8.06727 10.1638 8.17037 10.1356 8.2078C10.1075 8.24522 10.0841 8.2688 10.0655 8.27806C9.94365 8.32474 9.81696 8.34852 9.68584 8.34852C9.55452 8.34852 9.39528 8.28283 9.20788 8.15157C9.02053 8.0203 8.82609 7.83999 8.62456 7.61034C8.42303 7.38065 8.19575 7.05967 7.94262 6.64735C7.68968 6.23503 7.42724 5.74772 7.15545 5.18543L6.93058 4.77764C6.79001 4.5153 6.59798 4.13331 6.3543 3.63202C6.11047 3.13053 5.89496 2.64544 5.70761 2.17684C5.63272 1.98004 5.52021 1.83021 5.37028 1.7271L5.29992 1.68481C5.25314 1.64739 5.17806 1.60765 5.07505 1.56531C4.9719 1.52301 4.86426 1.49268 4.7517 1.47402L0.899872 1.50199C0.506264 1.50199 0.239198 1.59116 0.0985743 1.76925L0.0422954 1.8535C0.0141805 1.90042 0 1.97536 0 2.07851C0 2.18162 0.0281148 2.30816 0.0843938 2.45799C0.646691 3.77954 1.25818 5.05406 1.91885 6.28176C2.57952 7.50945 3.15364 8.4984 3.64085 9.2477C4.12816 9.99754 4.62487 10.7052 5.13098 11.3704C5.6371 12.0359 5.97212 12.4623 6.13603 12.6497C6.30014 12.8374 6.42904 12.9777 6.52274 13.0714L6.87425 13.4087C7.09917 13.6337 7.42946 13.9031 7.86526 14.217C8.30117 14.5311 8.78375 14.8403 9.31325 15.1452C9.84285 15.4495 10.459 15.6979 11.1619 15.8899C11.8648 16.0822 12.5489 16.1594 13.2144 16.1221H14.831C15.1589 16.0938 15.4073 15.9907 15.5762 15.8128L15.6321 15.7423C15.6697 15.6864 15.7049 15.5995 15.7374 15.4825C15.7703 15.3654 15.7867 15.2364 15.7867 15.096C15.7771 14.6931 15.8077 14.3299 15.8778 14.0066C15.9479 13.6834 16.0278 13.4398 16.1171 13.2757C16.2064 13.1117 16.3071 12.9733 16.4192 12.8612C16.5316 12.7488 16.6116 12.6807 16.6586 12.6572C16.7053 12.6336 16.7426 12.6176 16.7707 12.608C16.9956 12.5331 17.2603 12.6057 17.5652 12.8261C17.8698 13.0464 18.1555 13.3183 18.4228 13.6415C18.6899 13.965 19.0109 14.3279 19.3857 14.7308C19.7607 15.1339 20.0886 15.4335 20.3697 15.6306L20.6507 15.7993C20.8384 15.9119 21.0821 16.015 21.3821 16.1087C21.6815 16.2023 21.9438 16.2257 22.1691 16.1789L25.7677 16.1228C26.1237 16.1228 26.4006 16.0639 26.5971 15.9469C26.7939 15.8298 26.9109 15.7007 26.9486 15.5603C26.9862 15.4198 26.9882 15.2604 26.9557 15.0821C26.9224 14.9043 26.8896 14.78 26.8569 14.7098Z" fill="#FF6B00"/>
</svg>
