<svg width="23" height="39" viewBox="0 0 23 39" fill="none" xmlns="http://www.w3.org/2000/svg">
<path d="M11.894 34.8255C11.8352 34.802 11.7646 34.8294 11.7411 34.8921C11.7176 34.9548 11.745 35.0215 11.8078 35.045C12.0273 35.1312 12.1684 35.339 12.1684 35.5742C12.1684 35.8878 11.9136 36.1387 11.6039 36.1387C11.2903 36.1387 11.0394 35.8839 11.0394 35.5703C11.0394 35.3429 11.1766 35.1391 11.3844 35.0489C11.4432 35.0215 11.4746 34.9548 11.4471 34.8921C11.4197 34.8333 11.353 34.802 11.2903 34.8294C10.9924 34.9548 10.8003 35.2449 10.8003 35.5703C10.8003 36.0132 11.161 36.3739 11.6039 36.3739C12.0469 36.3739 12.4075 36.0132 12.4075 35.5703C12.4036 35.241 12.2037 34.947 11.894 34.8255Z" fill="#FF8000"/>
<path d="M11.6 35.7153C11.6666 35.7153 11.7176 35.6643 11.7176 35.5977V35.2841C11.7176 35.2175 11.6627 35.1665 11.6 35.1665C11.5334 35.1665 11.4824 35.2175 11.4824 35.2841V35.5977C11.4824 35.6643 11.5334 35.7153 11.6 35.7153Z" fill="#FF8000"/>
<path d="M20.3102 0.39209H2.88976C1.45896 0.39209 0.298645 1.55241 0.298645 2.98321V36.217C0.298645 37.6478 1.45896 38.8081 2.88976 38.8081H20.3102C21.741 38.8081 22.9014 37.6478 22.9014 36.217V2.98321C22.9014 1.55241 21.741 0.39209 20.3102 0.39209ZM18.2875 2.65785C18.5384 2.65785 18.7422 2.86169 18.7422 3.11257C18.7422 3.36345 18.5384 3.56729 18.2875 3.56729C18.0366 3.56729 17.8289 3.36345 17.8289 3.11257C17.8289 2.86169 18.0366 2.65785 18.2875 2.65785ZM8.42873 2.79113H14.7674C14.9438 2.79113 15.0888 2.93617 15.0888 3.11257C15.0888 3.28897 14.9438 3.43401 14.7674 3.43401H8.42873C8.25233 3.43401 8.10728 3.28897 8.10728 3.11257C8.10728 2.93617 8.25233 2.79113 8.42873 2.79113ZM4.26568 2.79113H6.35896C6.53536 2.79113 6.68041 2.93617 6.68041 3.11257C6.68041 3.28897 6.53536 3.43401 6.35896 3.43401H4.26568C4.08928 3.43401 3.94425 3.28897 3.94425 3.11257C3.94425 2.93617 4.08928 2.79113 4.26568 2.79113ZM11.5569 37.2244C10.6553 37.2244 9.92616 36.4953 9.92616 35.5937C9.92616 34.6921 10.6553 33.963 11.5569 33.963C12.4546 33.963 13.1876 34.6921 13.1876 35.5937C13.1876 36.4953 12.4546 37.2244 11.5569 37.2244ZM19.4047 30.9642C19.4047 31.3562 19.0872 31.6776 18.6913 31.6776H4.50873C4.11281 31.6776 3.79528 31.3601 3.79528 30.9642V5.38225C3.79528 4.99025 4.11281 4.66881 4.50873 4.66881H18.6913C19.0872 4.66881 19.4047 4.98633 19.4047 5.38225V30.9642V30.9642Z" fill="#FF8000"/>
</svg>
