<svg width="188" height="64" viewBox="0 0 188 64" fill="none" xmlns="http://www.w3.org/2000/svg">
<rect x="3" y="45" width="185" height="19" fill="#EC5600"/>
<path d="M23.9575 35.0869V40H7.68555V35.0869H23.9575ZM9.74316 9.42969V40H3.44434V9.42969H9.74316ZM21.8369 21.8804V26.6675H7.68555V21.8804H21.8369ZM23.9365 9.42969V14.3638H7.68555V9.42969H23.9365ZM44.5127 9.42969H50.7905V29.6279C50.7905 31.9795 50.2866 33.9601 49.2788 35.5698C48.285 37.1795 46.9062 38.3903 45.1426 39.2021C43.3929 40.014 41.3773 40.4199 39.0957 40.4199C36.8141 40.4199 34.7845 40.014 33.0068 39.2021C31.2432 38.3903 29.8574 37.1795 28.8496 35.5698C27.8558 33.9601 27.3589 31.9795 27.3589 29.6279V9.42969H33.6577V29.6279C33.6577 30.9997 33.8747 32.1195 34.3086 32.9873C34.7425 33.8551 35.3654 34.492 36.1772 34.8979C37.0031 35.3039 37.9759 35.5068 39.0957 35.5068C40.2435 35.5068 41.2163 35.3039 42.0142 34.8979C42.826 34.492 43.4419 33.8551 43.8618 32.9873C44.2957 32.1195 44.5127 30.9997 44.5127 29.6279V9.42969ZM55.9766 9.42969H67.3774C69.715 9.42969 71.7236 9.77962 73.4033 10.4795C75.097 11.1794 76.3988 12.2152 77.3086 13.5869C78.2184 14.9587 78.6733 16.6453 78.6733 18.647C78.6733 20.2847 78.3934 21.6914 77.8335 22.8672C77.2876 24.029 76.5107 25.0018 75.5029 25.7856C74.5091 26.5555 73.3403 27.1714 71.9966 27.6333L70.002 28.6831H60.0918L60.0498 23.77H67.4194C68.5252 23.77 69.4421 23.5741 70.1699 23.1821C70.8978 22.7902 71.4437 22.2443 71.8076 21.5444C72.1855 20.8446 72.3745 20.0327 72.3745 19.1089C72.3745 18.1291 72.1925 17.2822 71.8286 16.5684C71.4647 15.8545 70.9118 15.3086 70.1699 14.9307C69.4281 14.5527 68.4972 14.3638 67.3774 14.3638H62.2754V40H55.9766V9.42969ZM73.0674 40L66.0967 26.3735L72.7524 26.3315L79.8071 39.7061V40H73.0674ZM108.635 24.001V25.4497C108.635 27.7733 108.32 29.8589 107.69 31.7065C107.06 33.5542 106.171 35.1289 105.023 36.4307C103.876 37.7184 102.504 38.7052 100.908 39.3911C99.3265 40.077 97.5698 40.4199 95.6382 40.4199C93.7205 40.4199 91.9639 40.077 90.3682 39.3911C88.7865 38.7052 87.4147 37.7184 86.2529 36.4307C85.0911 35.1289 84.1883 33.5542 83.5444 31.7065C82.9146 29.8589 82.5996 27.7733 82.5996 25.4497V24.001C82.5996 21.6634 82.9146 19.5778 83.5444 17.7441C84.1743 15.8965 85.0632 14.3218 86.2109 13.02C87.3727 11.7183 88.7445 10.7244 90.3262 10.0386C91.9219 9.3527 93.6785 9.00977 95.5962 9.00977C97.5278 9.00977 99.2845 9.3527 100.866 10.0386C102.462 10.7244 103.834 11.7183 104.981 13.02C106.143 14.3218 107.039 15.8965 107.669 17.7441C108.313 19.5778 108.635 21.6634 108.635 24.001ZM102.273 25.4497V23.959C102.273 22.3353 102.126 20.9076 101.832 19.6758C101.538 18.444 101.104 17.4082 100.53 16.5684C99.9564 15.7285 99.2565 15.0986 98.4307 14.6787C97.6048 14.2448 96.66 14.0278 95.5962 14.0278C94.5324 14.0278 93.5876 14.2448 92.7617 14.6787C91.9499 15.0986 91.257 15.7285 90.6831 16.5684C90.1232 17.4082 89.6963 18.444 89.4023 19.6758C89.1084 20.9076 88.9614 22.3353 88.9614 23.959V25.4497C88.9614 27.0594 89.1084 28.4871 89.4023 29.7329C89.6963 30.9647 90.1302 32.0075 90.7041 32.8613C91.278 33.7012 91.9779 34.3381 92.8037 34.772C93.6296 35.2059 94.5744 35.4229 95.6382 35.4229C96.702 35.4229 97.6468 35.2059 98.4727 34.772C99.2985 34.3381 99.9914 33.7012 100.551 32.8613C101.111 32.0075 101.538 30.9647 101.832 29.7329C102.126 28.4871 102.273 27.0594 102.273 25.4497ZM116.046 9.42969H121.379L129.232 31.8745L137.084 9.42969H142.417L131.374 40H127.09L116.046 9.42969ZM113.17 9.42969H118.482L119.448 31.3076V40H113.17V9.42969ZM139.982 9.42969H145.315V40H139.016V31.3076L139.982 9.42969ZM168.621 9.42969L174.374 20.0957L180.126 9.42969H187.328L178.447 24.5889L187.559 40H180.294L174.374 29.124L168.453 40H161.146L170.279 24.5889L161.377 9.42969H168.621Z" fill="black"/>
<path d="M157.535 9.42969V40H151.257V9.42969H157.535Z" fill="#EC5600"/>
<path d="M88.2461 50.8906V52.0381H85.0479V58H83.5879V50.8906H88.2461ZM84.5449 53.4834H86.2051C86.765 53.4834 87.2467 53.5762 87.6504 53.7617C88.054 53.9473 88.3649 54.2077 88.583 54.543C88.8011 54.8783 88.9102 55.2689 88.9102 55.7148C88.9102 56.0534 88.8483 56.3626 88.7246 56.6426C88.6009 56.9193 88.4202 57.1602 88.1826 57.3652C87.9482 57.5671 87.665 57.7233 87.333 57.834C87.001 57.9447 86.625 58 86.2051 58H83.5879V50.8906H85.0576V56.8574H86.2051C86.485 56.8574 86.7161 56.8053 86.8984 56.7012C87.0807 56.597 87.2174 56.4587 87.3086 56.2861C87.403 56.1104 87.4502 55.9167 87.4502 55.7051C87.4502 55.5033 87.403 55.321 87.3086 55.1582C87.2174 54.9922 87.0807 54.862 86.8984 54.7676C86.7161 54.6732 86.485 54.626 86.2051 54.626H84.5449V53.4834ZM94.6377 56.8574V58H90.8535V56.8574H94.6377ZM91.332 50.8906V58H89.8672V50.8906H91.332ZM94.1445 53.7861V54.8994H90.8535V53.7861H94.1445ZM94.6328 50.8906V52.0381H90.8535V50.8906H94.6328ZM98.7686 50.8906V58H97.3086V50.8906H98.7686ZM100.956 50.8906V52.0381H95.1553V50.8906H100.956ZM107.494 54.2793V54.6162C107.494 55.1566 107.421 55.6416 107.274 56.0713C107.128 56.501 106.921 56.8672 106.654 57.1699C106.387 57.4694 106.068 57.6989 105.697 57.8584C105.329 58.0179 104.921 58.0977 104.472 58.0977C104.026 58.0977 103.617 58.0179 103.246 57.8584C102.878 57.6989 102.559 57.4694 102.289 57.1699C102.019 56.8672 101.809 56.501 101.659 56.0713C101.513 55.6416 101.439 55.1566 101.439 54.6162V54.2793C101.439 53.7357 101.513 53.2507 101.659 52.8242C101.806 52.3945 102.012 52.0283 102.279 51.7256C102.549 51.4229 102.868 51.1917 103.236 51.0322C103.607 50.8727 104.016 50.793 104.462 50.793C104.911 50.793 105.32 50.8727 105.688 51.0322C106.059 51.1917 106.378 51.4229 106.645 51.7256C106.915 52.0283 107.123 52.3945 107.27 52.8242C107.419 53.2507 107.494 53.7357 107.494 54.2793ZM106.015 54.6162V54.2695C106.015 53.8919 105.98 53.5599 105.912 53.2734C105.844 52.987 105.743 52.7461 105.609 52.5508C105.476 52.3555 105.313 52.209 105.121 52.1113C104.929 52.0104 104.709 51.96 104.462 51.96C104.215 51.96 103.995 52.0104 103.803 52.1113C103.614 52.209 103.453 52.3555 103.319 52.5508C103.189 52.7461 103.09 52.987 103.021 53.2734C102.953 53.5599 102.919 53.8919 102.919 54.2695V54.6162C102.919 54.9906 102.953 55.3226 103.021 55.6123C103.09 55.8988 103.191 56.1413 103.324 56.3398C103.458 56.5352 103.62 56.6833 103.812 56.7842C104.005 56.8851 104.224 56.9355 104.472 56.9355C104.719 56.9355 104.939 56.8851 105.131 56.7842C105.323 56.6833 105.484 56.5352 105.614 56.3398C105.744 56.1413 105.844 55.8988 105.912 55.6123C105.98 55.3226 106.015 54.9906 106.015 54.6162ZM113.29 53.7861V54.9287H109.579V53.7861H113.29ZM110.014 50.8906V58H108.549V50.8906H110.014ZM114.335 50.8906V58H112.875V50.8906H114.335ZM120.351 53.7861V54.9287H116.64V53.7861H120.351ZM117.074 50.8906V58H115.609V50.8906H117.074ZM121.396 50.8906V58H119.936V50.8906H121.396ZM123.637 53.4834H125.297C125.854 53.4834 126.334 53.5762 126.737 53.7617C127.144 53.9473 127.455 54.2077 127.67 54.543C127.888 54.8783 127.997 55.2689 127.997 55.7148C127.997 56.0534 127.935 56.3626 127.812 56.6426C127.688 56.9193 127.509 57.1602 127.274 57.3652C127.04 57.5671 126.757 57.7233 126.425 57.834C126.093 57.9447 125.717 58 125.297 58H122.68V50.8906H124.149V56.8574H125.297C125.574 56.8574 125.803 56.8053 125.985 56.7012C126.171 56.597 126.309 56.4587 126.4 56.2861C126.492 56.1104 126.537 55.9167 126.537 55.7051C126.537 55.5033 126.492 55.321 126.4 55.1582C126.309 54.9922 126.171 54.862 125.985 54.7676C125.803 54.6732 125.574 54.626 125.297 54.626H123.637V53.4834ZM130.087 50.8906V58H128.627V50.8906H130.087ZM136.132 56.8574V58H132.348V56.8574H136.132ZM132.826 50.8906V58H131.361V50.8906H132.826ZM135.639 53.7861V54.8994H132.348V53.7861H135.639ZM136.127 50.8906V52.0381H132.348V50.8906H136.127ZM142.133 54.5918H141.029V53.8154H141.908C142.165 53.8154 142.374 53.7764 142.533 53.6982C142.693 53.6169 142.81 53.5029 142.885 53.3564C142.96 53.21 142.997 53.0374 142.997 52.8389C142.997 52.6761 142.955 52.5264 142.87 52.3896C142.789 52.2529 142.662 52.1439 142.489 52.0625C142.317 51.9779 142.097 51.9355 141.83 51.9355C141.628 51.9355 141.444 51.9714 141.278 52.043C141.112 52.1146 140.98 52.2155 140.883 52.3457C140.785 52.4727 140.736 52.6273 140.736 52.8096H139.276C139.276 52.4971 139.343 52.2171 139.477 51.9697C139.613 51.7191 139.799 51.5075 140.033 51.335C140.271 51.1592 140.544 51.0257 140.854 50.9346C141.163 50.8434 141.488 50.7979 141.83 50.7979C142.23 50.7979 142.592 50.8418 142.914 50.9297C143.236 51.0143 143.513 51.1413 143.744 51.3105C143.975 51.4798 144.153 51.6898 144.276 51.9404C144.4 52.1911 144.462 52.4824 144.462 52.8145C144.462 53.0586 144.407 53.2881 144.296 53.5029C144.185 53.7178 144.027 53.9066 143.822 54.0693C143.617 54.2321 143.371 54.3607 143.085 54.4551C142.799 54.5462 142.481 54.5918 142.133 54.5918ZM141.029 54.167H142.133C142.52 54.167 142.864 54.2077 143.163 54.2891C143.466 54.3704 143.721 54.4893 143.93 54.6455C144.141 54.8018 144.301 54.9954 144.408 55.2266C144.519 55.4544 144.574 55.7165 144.574 56.0127C144.574 56.3447 144.506 56.6393 144.369 56.8965C144.236 57.1536 144.045 57.3717 143.798 57.5508C143.554 57.7298 143.264 57.8649 142.929 57.9561C142.597 58.0472 142.23 58.0928 141.83 58.0928C141.511 58.0928 141.194 58.0537 140.878 57.9756C140.562 57.8942 140.276 57.7705 140.019 57.6045C139.761 57.4385 139.556 57.2253 139.403 56.9648C139.25 56.7044 139.174 56.3919 139.174 56.0273H140.644C140.644 56.1999 140.694 56.3577 140.795 56.501C140.896 56.641 141.036 56.7533 141.215 56.8379C141.394 56.9193 141.599 56.96 141.83 56.96C142.1 56.96 142.33 56.9176 142.519 56.833C142.711 56.7484 142.855 56.6328 142.953 56.4863C143.054 56.3366 143.104 56.1722 143.104 55.9932C143.104 55.8011 143.078 55.6383 143.026 55.5049C142.974 55.3714 142.898 55.2624 142.797 55.1777C142.696 55.0898 142.571 55.0264 142.421 54.9873C142.274 54.9482 142.104 54.9287 141.908 54.9287H141.029V54.167ZM148.549 52.1064L146.615 58H145.058L147.699 50.8906H148.69L148.549 52.1064ZM150.155 58L148.217 52.1064L148.061 50.8906H149.062L151.718 58H150.155ZM150.067 55.3535V56.501H146.312V55.3535H150.067ZM155.16 54.8799H153.334L153.324 53.874H154.857C155.128 53.874 155.349 53.8398 155.521 53.7715C155.694 53.6999 155.823 53.5973 155.907 53.4639C155.995 53.3271 156.039 53.1611 156.039 52.9658C156.039 52.7445 155.997 52.5654 155.912 52.4287C155.831 52.292 155.702 52.1927 155.526 52.1309C155.354 52.069 155.131 52.0381 154.857 52.0381H153.842V58H152.377V50.8906H154.857C155.271 50.8906 155.64 50.9297 155.966 51.0078C156.295 51.0859 156.573 51.2048 156.801 51.3643C157.029 51.5238 157.203 51.7256 157.323 51.9697C157.444 52.2106 157.504 52.4971 157.504 52.8291C157.504 53.1221 157.437 53.3923 157.304 53.6396C157.174 53.887 156.967 54.0889 156.684 54.2451C156.404 54.4014 156.037 54.4876 155.585 54.5039L155.16 54.8799ZM155.097 58H152.934L153.505 56.8574H155.097C155.354 56.8574 155.564 56.8167 155.727 56.7354C155.889 56.6507 156.01 56.5368 156.088 56.3936C156.166 56.2503 156.205 56.0859 156.205 55.9004C156.205 55.6921 156.169 55.5114 156.098 55.3584C156.029 55.2054 155.919 55.0882 155.766 55.0068C155.613 54.9222 155.411 54.8799 155.16 54.8799H153.749L153.759 53.874H155.517L155.854 54.2695C156.286 54.263 156.635 54.3395 156.898 54.499C157.165 54.6553 157.359 54.8587 157.479 55.1094C157.603 55.36 157.665 55.6286 157.665 55.915C157.665 56.3708 157.566 56.7549 157.367 57.0674C157.169 57.3766 156.877 57.6094 156.493 57.7656C156.112 57.9219 155.647 58 155.097 58ZM164.604 54.2793V54.6162C164.604 55.1566 164.53 55.6416 164.384 56.0713C164.237 56.501 164.031 56.8672 163.764 57.1699C163.497 57.4694 163.178 57.6989 162.807 57.8584C162.439 58.0179 162.03 58.0977 161.581 58.0977C161.135 58.0977 160.727 58.0179 160.355 57.8584C159.988 57.6989 159.669 57.4694 159.398 57.1699C159.128 56.8672 158.918 56.501 158.769 56.0713C158.622 55.6416 158.549 55.1566 158.549 54.6162V54.2793C158.549 53.7357 158.622 53.2507 158.769 52.8242C158.915 52.3945 159.122 52.0283 159.389 51.7256C159.659 51.4229 159.978 51.1917 160.346 51.0322C160.717 50.8727 161.125 50.793 161.571 50.793C162.021 50.793 162.429 50.8727 162.797 51.0322C163.168 51.1917 163.487 51.4229 163.754 51.7256C164.024 52.0283 164.232 52.3945 164.379 52.8242C164.529 53.2507 164.604 53.7357 164.604 54.2793ZM163.124 54.6162V54.2695C163.124 53.8919 163.09 53.5599 163.021 53.2734C162.953 52.987 162.852 52.7461 162.719 52.5508C162.585 52.3555 162.423 52.209 162.23 52.1113C162.038 52.0104 161.819 51.96 161.571 51.96C161.324 51.96 161.104 52.0104 160.912 52.1113C160.723 52.209 160.562 52.3555 160.429 52.5508C160.299 52.7461 160.199 52.987 160.131 53.2734C160.062 53.5599 160.028 53.8919 160.028 54.2695V54.6162C160.028 54.9906 160.062 55.3226 160.131 55.6123C160.199 55.8988 160.3 56.1413 160.434 56.3398C160.567 56.5352 160.73 56.6833 160.922 56.7842C161.114 56.8851 161.334 56.9355 161.581 56.9355C161.828 56.9355 162.048 56.8851 162.24 56.7842C162.432 56.6833 162.593 56.5352 162.724 56.3398C162.854 56.1413 162.953 55.8988 163.021 55.6123C163.09 55.3226 163.124 54.9906 163.124 54.6162ZM171.132 56.8574V58H166.01V56.8574H171.132ZM166.444 56.8574V59.7432H165.067L164.989 56.8574H166.444ZM172.187 56.8574L172.06 59.748H170.717V56.8574H172.187ZM170.326 50.8906V52.0381H166.903V50.8906H170.326ZM171.371 50.8906V58H169.911V50.8906H171.371ZM166.723 50.8906H168.188L167.997 53.7861C167.968 54.2646 167.916 54.6878 167.841 55.0557C167.769 55.4202 167.681 55.7409 167.577 56.0176C167.476 56.2943 167.364 56.5368 167.24 56.7451C167.117 56.9502 166.986 57.1292 166.85 57.2822C166.713 57.432 166.575 57.5654 166.435 57.6826C166.295 57.7965 166.158 57.9023 166.024 58H165.185V56.8574H165.512C165.606 56.7793 165.705 56.6719 165.81 56.5352C165.917 56.3984 166.018 56.2145 166.112 55.9834C166.21 55.749 166.295 55.4528 166.366 55.0947C166.441 54.7367 166.496 54.3005 166.532 53.7861L166.723 50.8906ZM173.91 53.4834H175.57C176.127 53.4834 176.607 53.5762 177.011 53.7617C177.418 53.9473 177.729 54.2077 177.943 54.543C178.161 54.8783 178.271 55.2689 178.271 55.7148C178.271 56.0534 178.209 56.3626 178.085 56.6426C177.961 56.9193 177.782 57.1602 177.548 57.3652C177.313 57.5671 177.03 57.7233 176.698 57.834C176.366 57.9447 175.99 58 175.57 58H172.953V50.8906H174.423V56.8574H175.57C175.847 56.8574 176.076 56.8053 176.259 56.7012C176.444 56.597 176.583 56.4587 176.674 56.2861C176.765 56.1104 176.811 55.9167 176.811 55.7051C176.811 55.5033 176.765 55.321 176.674 55.1582C176.583 54.9922 176.444 54.862 176.259 54.7676C176.076 54.6732 175.847 54.626 175.57 54.626H173.91V53.4834ZM180.36 50.8906V58H178.9V50.8906H180.36Z" fill="white"/>
</svg>
