<svg width="1920" height="483" viewBox="0 0 1920 483" fill="none" xmlns="http://www.w3.org/2000/svg">
<rect x="-33" y="3.05176e-05" width="1960" height="483" fill="#222A31"/>
<path opacity="0.1" d="M273 210C71.4 205.2 13 389.333 9 482H1927V8.00003C1874.33 134.667 1736.6 388 1607 388C1445 388 1381 40.0001 1127 48.0001C873 56.0001 937 374 703 388C469 402 525 216 273 210Z" fill="white"/>
<path opacity="0.2" d="M557.696 75.6976C558.692 79.4154 555.29 82.8175 551.572 81.8213L524.679 74.6154C520.962 73.6192 519.716 68.9719 522.438 66.2503L542.125 46.5636C544.846 43.8419 549.494 45.0872 550.49 48.805L557.696 75.6976Z" fill="#FF6B00"/>
<path opacity="0.2" d="M217.178 144.664C213.424 145.514 210.157 141.982 211.298 138.306L219.548 111.715C220.689 108.039 225.381 106.976 227.995 109.802L246.897 130.243C249.511 133.069 248.085 137.664 244.331 138.514L217.178 144.664Z" fill="#FF6B00"/>
<path opacity="0.2" d="M1686.06 111.666C1685.85 107.822 1689.88 105.191 1693.31 106.929L1718.15 119.499C1721.59 121.236 1721.85 126.04 1718.63 128.146L1695.32 143.374C1692.1 145.48 1687.81 143.308 1687.6 139.464L1686.06 111.666Z" fill="#FF6B00"/>
<path opacity="0.2" d="M433.305 197.909C433.093 194.066 437.121 191.434 440.555 193.172L465.397 205.742C468.831 207.48 469.097 212.284 465.875 214.389L442.568 229.618C439.345 231.723 435.052 229.551 434.84 225.708L433.305 197.909Z" fill="#FF6B00"/>
</svg>
