<svg width="49" height="49" viewBox="0 0 49 49" fill="none" xmlns="http://www.w3.org/2000/svg">
<path d="M24.5002 0.48999C11.2408 0.48999 0.490234 11.2406 0.490234 24.5C0.490234 37.7594 11.2408 48.51 24.5002 48.51C37.7596 48.51 48.5102 37.7594 48.5102 24.5C48.5102 11.2406 37.7596 0.48999 24.5002 0.48999ZM36.2063 17.836L21.2662 32.8692C21.2123 32.9476 21.1486 33.026 21.08 33.0995C20.492 33.6826 19.5414 33.6826 18.9583 33.0995L11.5299 25.6662C10.9419 25.0782 10.9419 24.1325 11.5299 23.5445C12.113 22.9565 13.0636 22.9565 13.6516 23.5445L19.9971 29.89L34.0846 15.7143C34.6726 15.1263 35.6183 15.1263 36.2063 15.7143C36.7894 16.3023 36.7894 17.2529 36.2063 17.836Z" fill="#00BD1E"/>
</svg>
