<svg width="25" height="29" viewBox="0 0 25 29" fill="none" xmlns="http://www.w3.org/2000/svg">
<path d="M5.97411 9.20883L19.1604 9.19703C19.8862 9.19703 20.4734 8.60986 20.4734 7.88401C20.4734 7.15816 19.8862 6.57099 19.1604 6.57099L5.97411 6.58279C5.24827 6.58279 4.6611 7.16996 4.6611 7.89581C4.6611 8.62166 5.24827 9.20883 5.97411 9.20883ZM24.3947 18.0872L24.3829 2.38409C24.2619 1.06222 23.1584 0.0236048 21.81 0L3.13268 0.0118024C1.79606 0.138678 0.751549 1.25991 0.751549 2.62899V4.02462H0.739746L0.748598 24.8765H0.751549V26.2722C0.751549 27.7239 1.92884 28.8982 3.37758 28.8982H4.6906V28.9071L8.56769 28.9012C9.29354 28.9012 9.88071 28.314 9.88071 27.5881C9.88071 26.8623 9.29354 26.2751 8.56769 26.2751L4.39849 26.284L6.00362 26.2456C3.94705 26.2456 3.40414 25.8679 3.37758 23.7789L3.39529 26.2869H3.37758L3.36578 2.64374H3.39529L3.37758 5.1311C3.40414 3.04207 3.94705 2.66439 6.00362 2.66439L5.15385 2.64374L20.3406 2.63489L19.1397 2.66439C21.0782 2.66439 21.6743 3.00076 21.7569 4.79178L21.7657 17.0722L16.5963 17.0751V17.0781H15.2006C13.749 17.0781 12.5746 18.2554 12.5746 19.7041V21.0171H12.5658L12.5746 27.3255C12.489 27.7445 12.6071 28.196 12.9316 28.5205C13.0674 28.6563 13.2237 28.7566 13.3919 28.8185C13.5454 28.8805 13.7106 28.9159 13.8876 28.9159C14.3479 28.9159 14.7522 28.6799 14.9853 28.3228L23.7426 19.5448C23.8341 19.4917 23.9197 19.4268 23.9964 19.353C24.2619 19.114 24.4272 18.7658 24.4272 18.3793C24.4272 18.279 24.4154 18.1816 24.3947 18.0872ZM21.751 2.62899H21.7569V3.51417L21.751 2.62899ZM15.1947 24.3926L15.1918 22.1118C15.2213 20.2382 15.6816 19.7307 17.6939 19.7041L15.2065 19.7218L15.1918 22.0587L15.1888 19.7041L19.8803 19.6982L15.1947 24.3926ZM5.97411 14.4639L19.1604 14.4521C19.8862 14.4521 20.4734 13.8649 20.4734 13.139C20.4734 12.4132 19.8862 11.826 19.1604 11.826L5.97411 11.8349C5.24827 11.8349 4.6611 12.422 4.6611 13.1479C4.6611 13.8737 5.24827 14.4639 5.97411 14.4639Z" fill="#FF6B00"/>
</svg>
